<svg width="119" height="176" viewBox="0 0 119 176" fill="none" xmlns="http://www.w3.org/2000/svg">
<path d="M52.855 115.66C50.9216 115.66 48.9883 115.234 47.5136 114.382C44.567 112.68 44.567 109.918 47.5163 108.217C48.9896 107.365 50.9216 106.94 52.855 106.94C54.787 106.94 56.7203 107.365 58.1949 108.217C61.1443 109.918 61.1443 112.68 58.1949 114.382C56.7203 115.234 54.787 115.66 52.855 115.66Z" fill="#66A4B1"/>
<path d="M58.3362 110.508H47.3735V111.153C47.3735 111.964 47.9069 112.773 48.9789 113.393C51.1202 114.628 54.5909 114.628 56.7309 113.393C57.8015 112.773 58.3362 111.964 58.3362 111.153V110.508Z" fill="#8F9295"/>
<path d="M56.731 112.748C54.591 113.984 51.1204 113.984 48.979 112.748C46.8377 111.512 46.8377 109.508 48.979 108.272C51.1204 107.034 54.591 107.034 56.731 108.272C58.8724 109.508 58.8724 111.51 56.731 112.748Z" fill="#E9EAE9"/>
<path d="M56.6777 109.093H49.0337V110.194C49.0337 110.76 49.4044 111.325 50.1524 111.757C51.6457 112.62 54.0644 112.62 55.5577 111.757C56.307 111.325 56.6777 110.76 56.6777 110.194V109.093Z" fill="#8F9295"/>
<path d="M55.5576 110.65C54.0642 111.516 51.6456 111.516 50.1522 110.65C48.6589 109.792 48.6589 108.393 50.1522 107.53C51.6456 106.669 54.0642 106.669 55.5576 107.53C57.0522 108.393 57.0522 109.79 55.5576 110.65Z" fill="#E9EAE9"/>
<path d="M55.1162 84.2396H50.5935V108.906C50.5935 109.24 50.8149 109.573 51.2575 109.828C52.1375 110.337 53.5695 110.337 54.4522 109.828C54.8962 109.573 55.1162 109.24 55.1162 108.906V84.2396Z" fill="#BBBCBD"/>
<path d="M54.4524 85.1623C53.5697 85.6716 52.1377 85.6716 51.2577 85.1623C50.375 84.653 50.375 83.8276 51.2577 83.317C52.1377 82.8063 53.5697 82.8063 54.4524 83.317C55.3364 83.8276 55.3364 84.653 54.4524 85.1623Z" fill="#E9EAE9"/>
<path d="M53.8243 30.3223H51.887V84.145C51.887 84.2876 51.9803 84.4316 52.1696 84.5396C52.5483 84.7583 53.1643 84.7583 53.5416 84.5396C53.731 84.4316 53.8243 84.2876 53.8243 84.145V30.3223Z" fill="#8F9295"/>
<path d="M53.5415 30.7183C53.1642 30.9357 52.5482 30.9357 52.1695 30.7183C51.7908 30.4983 51.7908 30.1437 52.1695 29.925C52.5482 29.7064 53.1642 29.7064 53.5415 29.925C53.9188 30.1437 53.9188 30.4983 53.5415 30.7183Z" fill="#7A7E82"/>
<path d="M50.6936 32.1104L55.4109 24.077L47.3176 20.8944V20.8957C46.9003 20.729 46.3643 20.793 45.7816 21.1317C44.4629 21.8917 43.3962 23.7397 43.3962 25.261C43.3962 25.9117 43.5936 26.397 43.9243 26.6797V26.681L43.9296 26.6877L43.9576 26.7104L50.6936 32.1104Z" fill="#D3D4D3"/>
<path d="M56.7468 26.3863C56.7468 28.5143 55.2535 31.0996 53.4108 32.1636C51.5695 33.2263 50.0762 32.3636 50.0762 30.237C50.0762 28.1103 51.5695 25.525 53.4108 24.4623C55.2535 23.3983 56.7468 24.2596 56.7468 26.3863Z" fill="#BBBCBD"/>
<path d="M54.9309 1.28095L55.1016 0.574277L54.2283 0.0689389C54.0883 -0.0190611 53.9429 -0.0243684 53.7936 0.0622983C52.5283 0.791632 51.5029 7.75829 51.5029 15.6196C51.5029 23.481 52.5283 29.2636 53.7936 28.5329C55.0576 27.8036 56.0843 20.8383 56.0843 12.9756C56.0843 7.68494 55.6189 3.33828 54.9309 1.28095Z" fill="white"/>
<path d="M57.007 13.5076C57.007 21.3703 55.9816 28.3356 54.7176 29.0662C53.4523 29.7969 52.4243 24.0156 52.4243 16.1529C52.4243 8.29026 53.4523 1.32627 54.7176 0.594273C55.9816 -0.13506 57.007 5.64625 57.007 13.5076Z" fill="#E9EAE9"/>
<path d="M53.7935 28.5116C53.1082 27.6809 47.9135 33.1396 42.1922 40.7049C36.4722 48.2703 32.3908 55.0769 33.0748 55.9089L33.1308 55.9543L34.0668 56.4969L34.9495 55.2796L34.6908 55.1623C36.7935 53.4236 40.6015 49.1036 44.6762 43.7156C50.3962 36.1489 54.4815 29.3423 53.7935 28.5116Z" fill="white"/>
<path d="M43.1149 41.2382C48.8375 33.6716 54.0309 28.2129 54.7175 29.0449C55.4042 29.8756 51.3202 36.6836 45.5989 44.2476C39.8789 51.8129 34.6815 57.2729 34.0002 56.4422C33.3122 55.6102 37.3949 48.8036 43.1149 41.2382Z" fill="#E9EAE9"/>
<path d="M65.3949 27.3089C59.6723 26.3502 54.4789 26.8889 53.7936 28.5129C53.1083 30.1356 57.1909 32.2276 62.9109 33.1876C68.6309 34.1463 73.8269 33.6076 74.5123 31.9849C75.1989 30.3623 71.1163 28.2676 65.3949 27.3089Z" fill="white"/>
<path d="M66.3188 27.841C60.5961 26.8836 55.4014 27.421 54.7174 29.045C54.0308 30.6676 58.1134 32.761 63.8348 33.7196C69.5548 34.6783 74.7494 34.141 75.4361 32.517C76.1188 30.8943 72.0388 28.801 66.3188 27.841Z" fill="#E9EAE9"/>
<path d="M57.7202 25.6542C57.1775 24.6796 56.0375 24.4516 54.7175 25.2142C52.8735 26.2782 51.3828 28.8649 51.3828 30.9929C51.3828 32.4742 52.1068 33.3409 53.1708 33.3702L53.1695 33.3729L58.5882 33.5249L60.4775 30.1369L57.7202 25.6542Z" fill="#D3D4D3"/>
<path d="M60.6909 30.8769C60.6909 31.7823 60.0548 32.8823 59.2735 33.3343C58.4908 33.7849 57.8535 33.4196 57.8535 32.5156C57.8535 31.6103 58.4908 30.5116 59.2735 30.0583C60.0548 29.6063 60.6909 29.9743 60.6909 30.8769Z" fill="#BBBCBD"/>
<path d="M52.855 115.66C50.9216 115.66 48.9883 115.234 47.5136 114.382C44.567 112.68 44.567 109.918 47.5163 108.217C48.9896 107.365 50.9216 106.94 52.855 106.94C54.787 106.94 56.7203 107.365 58.1949 108.217C61.1443 109.918 61.1443 112.68 58.1949 114.382C56.7203 115.234 54.787 115.66 52.855 115.66Z" fill="#66A4B1"/>
<path d="M58.3362 110.508H47.3735V111.153C47.3735 111.964 47.9069 112.773 48.9789 113.393C51.1202 114.628 54.5909 114.628 56.7309 113.393C57.8015 112.773 58.3362 111.964 58.3362 111.153V110.508Z" fill="#8F9295"/>
<path d="M56.731 112.748C54.591 113.984 51.1204 113.984 48.979 112.748C46.8377 111.512 46.8377 109.508 48.979 108.272C51.1204 107.034 54.591 107.034 56.731 108.272C58.8724 109.508 58.8724 111.51 56.731 112.748Z" fill="#E9EAE9"/>
<path d="M56.6777 109.093H49.0337V110.194C49.0337 110.76 49.4044 111.325 50.1524 111.757C51.6457 112.62 54.0644 112.62 55.5577 111.757C56.307 111.325 56.6777 110.76 56.6777 110.194V109.093Z" fill="#8F9295"/>
<path d="M55.5576 110.65C54.0642 111.516 51.6456 111.516 50.1522 110.65C48.6589 109.792 48.6589 108.393 50.1522 107.53C51.6456 106.669 54.0642 106.669 55.5576 107.53C57.0522 108.393 57.0522 109.79 55.5576 110.65Z" fill="#E9EAE9"/>
<path d="M55.1162 84.2396H50.5935V108.906C50.5935 109.24 50.8149 109.573 51.2575 109.828C52.1375 110.337 53.5695 110.337 54.4522 109.828C54.8962 109.573 55.1162 109.24 55.1162 108.906V84.2396Z" fill="#BBBCBD"/>
<path d="M54.4524 85.1623C53.5697 85.6716 52.1377 85.6716 51.2577 85.1623C50.375 84.653 50.375 83.8276 51.2577 83.317C52.1377 82.8063 53.5697 82.8063 54.4524 83.317C55.3364 83.8276 55.3364 84.653 54.4524 85.1623Z" fill="#E9EAE9"/>
<path d="M53.8243 30.3223H51.887V84.145C51.887 84.2876 51.9803 84.4316 52.1696 84.5396C52.5483 84.7583 53.1643 84.7583 53.5416 84.5396C53.731 84.4316 53.8243 84.2876 53.8243 84.145V30.3223Z" fill="#8F9295"/>
<path d="M53.5415 30.7183C53.1642 30.9357 52.5482 30.9357 52.1695 30.7183C51.7908 30.4983 51.7908 30.1437 52.1695 29.925C52.5482 29.7064 53.1642 29.7064 53.5415 29.925C53.9188 30.1437 53.9188 30.4983 53.5415 30.7183Z" fill="#7A7E82"/>
<path d="M50.6936 32.1104L55.4109 24.077L47.3176 20.8944V20.8957C46.9003 20.729 46.3643 20.793 45.7816 21.1317C44.4629 21.8917 43.3962 23.7397 43.3962 25.261C43.3962 25.9117 43.5936 26.397 43.9243 26.6797V26.681L43.9296 26.6877L43.9576 26.7104L50.6936 32.1104Z" fill="#D3D4D3"/>
<path d="M56.7468 26.3863C56.7468 28.5143 55.2535 31.0996 53.4108 32.1636C51.5695 33.2263 50.0762 32.3636 50.0762 30.237C50.0762 28.1103 51.5695 25.525 53.4108 24.4623C55.2535 23.3983 56.7468 24.2596 56.7468 26.3863Z" fill="#BBBCBD"/>
<path d="M54.9309 1.28095L55.1016 0.574277L54.2283 0.0689389C54.0883 -0.0190611 53.9429 -0.0243684 53.7936 0.0622983C52.5283 0.791632 51.5029 7.75829 51.5029 15.6196C51.5029 23.481 52.5283 29.2636 53.7936 28.5329C55.0576 27.8036 56.0843 20.8383 56.0843 12.9756C56.0843 7.68494 55.6189 3.33828 54.9309 1.28095Z" fill="white"/>
<path d="M57.007 13.5076C57.007 21.3703 55.9816 28.3356 54.7176 29.0662C53.4523 29.7969 52.4243 24.0156 52.4243 16.1529C52.4243 8.29026 53.4523 1.32627 54.7176 0.594273C55.9816 -0.13506 57.007 5.64625 57.007 13.5076Z" fill="#E9EAE9"/>
<path d="M53.7935 28.5116C53.1082 27.6809 47.9135 33.1396 42.1922 40.7049C36.4722 48.2703 32.3908 55.0769 33.0748 55.9089L33.1308 55.9543L34.0668 56.4969L34.9495 55.2796L34.6908 55.1623C36.7935 53.4236 40.6015 49.1036 44.6762 43.7156C50.3962 36.1489 54.4815 29.3423 53.7935 28.5116Z" fill="white"/>
<path d="M43.1149 41.2382C48.8375 33.6716 54.0309 28.2129 54.7175 29.0449C55.4042 29.8756 51.3202 36.6836 45.5989 44.2476C39.8789 51.8129 34.6815 57.2729 34.0002 56.4422C33.3122 55.6102 37.3949 48.8036 43.1149 41.2382Z" fill="#E9EAE9"/>
<path d="M65.3949 27.3089C59.6723 26.3502 54.4789 26.8889 53.7936 28.5129C53.1083 30.1356 57.1909 32.2276 62.9109 33.1876C68.6309 34.1463 73.8269 33.6076 74.5123 31.9849C75.1989 30.3623 71.1163 28.2676 65.3949 27.3089Z" fill="white"/>
<path d="M66.3188 27.841C60.5961 26.8836 55.4014 27.421 54.7174 29.045C54.0308 30.6676 58.1134 32.761 63.8348 33.7196C69.5548 34.6783 74.7494 34.141 75.4361 32.517C76.1188 30.8943 72.0388 28.801 66.3188 27.841Z" fill="#E9EAE9"/>
<path d="M57.7202 25.6542C57.1775 24.6796 56.0375 24.4516 54.7175 25.2142C52.8735 26.2782 51.3828 28.8649 51.3828 30.9929C51.3828 32.4742 52.1068 33.3409 53.1708 33.3702L53.1695 33.3729L58.5882 33.5249L60.4775 30.1369L57.7202 25.6542Z" fill="#D3D4D3"/>
<path d="M60.6909 30.8769C60.6909 31.7823 60.0548 32.8823 59.2735 33.3343C58.4908 33.7849 57.8535 33.4196 57.8535 32.5156C57.8535 31.6103 58.4908 30.5116 59.2735 30.0583C60.0548 29.6063 60.6909 29.9743 60.6909 30.8769Z" fill="#BBBCBD"/>
<path d="M95.855 139.66C93.9216 139.66 91.9883 139.234 90.5136 138.382C87.567 136.68 87.567 133.918 90.5163 132.217C91.9896 131.365 93.9216 130.94 95.855 130.94C97.787 130.94 99.7203 131.365 101.195 132.217C104.144 133.918 104.144 136.68 101.195 138.382C99.7203 139.234 97.787 139.66 95.855 139.66Z" fill="#66A4B1"/>
<path d="M101.336 134.508H90.3735V135.153C90.3735 135.964 90.9069 136.773 91.9789 137.393C94.1202 138.628 97.5909 138.628 99.7309 137.393C100.802 136.773 101.336 135.964 101.336 135.153V134.508Z" fill="#8F9295"/>
<path d="M99.731 136.748C97.591 137.984 94.1204 137.984 91.979 136.748C89.8377 135.512 89.8377 133.508 91.979 132.272C94.1204 131.034 97.591 131.034 99.731 132.272C101.872 133.508 101.872 135.51 99.731 136.748Z" fill="#E9EAE9"/>
<path d="M99.6777 133.093H92.0337V134.194C92.0337 134.76 92.4044 135.325 93.1524 135.757C94.6457 136.62 97.0644 136.62 98.5577 135.757C99.307 135.325 99.6777 134.76 99.6777 134.194V133.093Z" fill="#8F9295"/>
<path d="M98.5576 134.65C97.0642 135.516 94.6456 135.516 93.1522 134.65C91.6589 133.792 91.6589 132.393 93.1522 131.53C94.6456 130.669 97.0642 130.669 98.5576 131.53C100.052 132.393 100.052 133.79 98.5576 134.65Z" fill="#E9EAE9"/>
<path d="M98.1162 108.24H93.5935V132.906C93.5935 133.24 93.8149 133.573 94.2575 133.828C95.1375 134.337 96.5695 134.337 97.4522 133.828C97.8962 133.573 98.1162 133.24 98.1162 132.906V108.24Z" fill="#BBBCBD"/>
<path d="M97.4524 109.162C96.5697 109.672 95.1377 109.672 94.2577 109.162C93.375 108.653 93.375 107.828 94.2577 107.317C95.1377 106.806 96.5697 106.806 97.4524 107.317C98.3364 107.828 98.3364 108.653 97.4524 109.162Z" fill="#E9EAE9"/>
<path d="M96.8243 54.3223H94.887V108.145C94.887 108.288 94.9803 108.432 95.1696 108.54C95.5483 108.758 96.1643 108.758 96.5416 108.54C96.731 108.432 96.8243 108.288 96.8243 108.145V54.3223Z" fill="#8F9295"/>
<path d="M96.5415 54.7183C96.1642 54.9357 95.5482 54.9357 95.1695 54.7183C94.7908 54.4983 94.7908 54.1437 95.1695 53.925C95.5482 53.7064 96.1642 53.7064 96.5415 53.925C96.9188 54.1437 96.9188 54.4983 96.5415 54.7183Z" fill="#7A7E82"/>
<path d="M93.6936 56.1104L98.4109 48.077L90.3176 44.8944V44.8957C89.9003 44.729 89.3643 44.793 88.7816 45.1317C87.4629 45.8917 86.3962 47.7397 86.3962 49.261C86.3962 49.9117 86.5936 50.397 86.9243 50.6797V50.681L86.9296 50.6877L86.9576 50.7104L93.6936 56.1104Z" fill="#D3D4D3"/>
<path d="M99.7468 50.3863C99.7468 52.5143 98.2535 55.0996 96.4108 56.1636C94.5695 57.2263 93.0762 56.3636 93.0762 54.237C93.0762 52.1103 94.5695 49.525 96.4108 48.4623C98.2535 47.3983 99.7468 48.2596 99.7468 50.3863Z" fill="#BBBCBD"/>
<path d="M97.9309 25.281L98.1016 24.5743L97.2283 24.0689C97.0883 23.9809 96.9429 23.9756 96.7936 24.0623C95.5283 24.7916 94.5029 31.7583 94.5029 39.6196C94.5029 47.481 95.5283 53.2636 96.7936 52.5329C98.0576 51.8036 99.0843 44.8383 99.0843 36.9756C99.0843 31.6849 98.6189 27.3383 97.9309 25.281Z" fill="white"/>
<path d="M100.007 37.5076C100.007 45.3703 98.9816 52.3356 97.7176 53.0662C96.4523 53.7969 95.4243 48.0156 95.4243 40.1529C95.4243 32.2903 96.4523 25.3263 97.7176 24.5943C98.9816 23.8649 100.007 29.6463 100.007 37.5076Z" fill="#E9EAE9"/>
<path d="M96.7935 52.5116C96.1082 51.6809 90.9135 57.1396 85.1922 64.7049C79.4722 72.2703 75.3908 79.0769 76.0748 79.9089L76.1308 79.9543L77.0668 80.4969L77.9495 79.2796L77.6908 79.1623C79.7935 77.4236 83.6015 73.1036 87.6762 67.7156C93.3962 60.1489 97.4815 53.3423 96.7935 52.5116Z" fill="white"/>
<path d="M86.1149 65.2382C91.8375 57.6716 97.0309 52.2129 97.7175 53.0449C98.4042 53.8756 94.3202 60.6836 88.5989 68.2476C82.8789 75.8129 77.6815 81.2729 77.0002 80.4422C76.3122 79.6102 80.3949 72.8036 86.1149 65.2382Z" fill="#E9EAE9"/>
<path d="M108.395 51.3089C102.672 50.3502 97.4789 50.8889 96.7936 52.5129C96.1083 54.1356 100.191 56.2276 105.911 57.1876C111.631 58.1463 116.827 57.6076 117.512 55.9849C118.199 54.3623 114.116 52.2676 108.395 51.3089Z" fill="white"/>
<path d="M109.319 51.841C103.596 50.8836 98.4014 51.421 97.7174 53.045C97.0308 54.6676 101.113 56.761 106.835 57.7196C112.555 58.6783 117.749 58.141 118.436 56.517C119.119 54.8943 115.039 52.801 109.319 51.841Z" fill="#E9EAE9"/>
<path d="M100.72 49.6542C100.177 48.6796 99.0375 48.4516 97.7175 49.2142C95.8735 50.2782 94.3828 52.8649 94.3828 54.9929C94.3828 56.4742 95.1068 57.3409 96.1708 57.3702L96.1695 57.3729L101.588 57.5249L103.477 54.1369L100.72 49.6542Z" fill="#D3D4D3"/>
<path d="M103.691 54.8769C103.691 55.7823 103.055 56.8823 102.274 57.3343C101.491 57.7849 100.854 57.4196 100.854 56.5156C100.854 55.6103 101.491 54.5116 102.274 54.0583C103.055 53.6063 103.691 53.9743 103.691 54.8769Z" fill="#BBBCBD"/>
<path d="M66.855 175.66C64.9216 175.66 62.9883 175.234 61.5136 174.382C58.567 172.68 58.567 169.918 61.5163 168.217C62.9896 167.365 64.9216 166.94 66.855 166.94C68.787 166.94 70.7203 167.365 72.1949 168.217C75.1443 169.918 75.1443 172.68 72.1949 174.382C70.7203 175.234 68.787 175.66 66.855 175.66Z" fill="#66A4B1"/>
<path d="M72.3362 170.508H61.3735V171.153C61.3735 171.964 61.9069 172.773 62.9789 173.393C65.1202 174.628 68.5909 174.628 70.7309 173.393C71.8015 172.773 72.3362 171.964 72.3362 171.153V170.508Z" fill="#8F9295"/>
<path d="M70.731 172.748C68.591 173.984 65.1204 173.984 62.979 172.748C60.8377 171.512 60.8377 169.508 62.979 168.272C65.1204 167.034 68.591 167.034 70.731 168.272C72.8724 169.508 72.8724 171.51 70.731 172.748Z" fill="#E9EAE9"/>
<path d="M70.6777 169.093H63.0337V170.194C63.0337 170.76 63.4044 171.325 64.1524 171.757C65.6457 172.62 68.0644 172.62 69.5577 171.757C70.307 171.325 70.6777 170.76 70.6777 170.194V169.093Z" fill="#8F9295"/>
<path d="M69.5576 170.65C68.0642 171.516 65.6456 171.516 64.1522 170.65C62.6589 169.792 62.6589 168.393 64.1522 167.53C65.6456 166.669 68.0642 166.669 69.5576 167.53C71.0522 168.393 71.0522 169.79 69.5576 170.65Z" fill="#E9EAE9"/>
<path d="M69.1162 144.24H64.5935V168.906C64.5935 169.24 64.8149 169.573 65.2575 169.828C66.1375 170.337 67.5695 170.337 68.4522 169.828C68.8962 169.573 69.1162 169.24 69.1162 168.906V144.24Z" fill="#BBBCBD"/>
<path d="M68.4524 145.162C67.5697 145.672 66.1377 145.672 65.2577 145.162C64.375 144.653 64.375 143.828 65.2577 143.317C66.1377 142.806 67.5697 142.806 68.4524 143.317C69.3364 143.828 69.3364 144.653 68.4524 145.162Z" fill="#E9EAE9"/>
<path d="M67.8243 90.3223H65.887V144.145C65.887 144.288 65.9803 144.432 66.1696 144.54C66.5483 144.758 67.1643 144.758 67.5416 144.54C67.731 144.432 67.8243 144.288 67.8243 144.145V90.3223Z" fill="#8F9295"/>
<path d="M67.5415 90.7183C67.1642 90.9357 66.5482 90.9357 66.1695 90.7183C65.7908 90.4983 65.7908 90.1437 66.1695 89.925C66.5482 89.7064 67.1642 89.7064 67.5415 89.925C67.9188 90.1437 67.9188 90.4983 67.5415 90.7183Z" fill="#7A7E82"/>
<path d="M64.6936 92.1104L69.4109 84.077L61.3176 80.8944V80.8957C60.9003 80.729 60.3643 80.793 59.7816 81.1317C58.4629 81.8917 57.3962 83.7397 57.3962 85.261C57.3962 85.9117 57.5936 86.397 57.9243 86.6797V86.681L57.9296 86.6877L57.9576 86.7104L64.6936 92.1104Z" fill="#D3D4D3"/>
<path d="M70.7468 86.3863C70.7468 88.5143 69.2535 91.0996 67.4108 92.1636C65.5695 93.2263 64.0762 92.3636 64.0762 90.237C64.0762 88.1103 65.5695 85.525 67.4108 84.4623C69.2535 83.3983 70.7468 84.2596 70.7468 86.3863Z" fill="#BBBCBD"/>
<path d="M68.9309 61.281L69.1016 60.5743L68.2283 60.0689C68.0883 59.9809 67.9429 59.9756 67.7936 60.0623C66.5283 60.7916 65.5029 67.7583 65.5029 75.6196C65.5029 83.481 66.5283 89.2636 67.7936 88.5329C69.0576 87.8036 70.0843 80.8383 70.0843 72.9756C70.0843 67.6849 69.6189 63.3383 68.9309 61.281Z" fill="white"/>
<path d="M71.007 73.5076C71.007 81.3703 69.9816 88.3356 68.7176 89.0662C67.4523 89.7969 66.4243 84.0156 66.4243 76.1529C66.4243 68.2903 67.4523 61.3263 68.7176 60.5943C69.9816 59.8649 71.007 65.6463 71.007 73.5076Z" fill="#E9EAE9"/>
<path d="M67.7935 88.5116C67.1082 87.6809 61.9135 93.1396 56.1922 100.705C50.4722 108.27 46.3908 115.077 47.0748 115.909L47.1308 115.954L48.0668 116.497L48.9495 115.28L48.6908 115.162C50.7935 113.424 54.6015 109.104 58.6762 103.716C64.3962 96.1489 68.4815 89.3423 67.7935 88.5116Z" fill="white"/>
<path d="M57.1149 101.238C62.8375 93.6716 68.0309 88.2129 68.7175 89.0449C69.4042 89.8756 65.3202 96.6836 59.5989 104.248C53.8789 111.813 48.6815 117.273 48.0002 116.442C47.3122 115.61 51.3949 108.804 57.1149 101.238Z" fill="#E9EAE9"/>
<path d="M79.3949 87.3089C73.6723 86.3502 68.4789 86.8889 67.7936 88.5129C67.1083 90.1356 71.1909 92.2276 76.9109 93.1876C82.6309 94.1463 87.8269 93.6076 88.5123 91.9849C89.1989 90.3623 85.1163 88.2676 79.3949 87.3089Z" fill="white"/>
<path d="M80.3188 87.841C74.5961 86.8836 69.4014 87.421 68.7174 89.045C68.0308 90.6676 72.1134 92.761 77.8348 93.7196C83.5548 94.6783 88.7494 94.141 89.4361 92.517C90.1188 90.8943 86.0388 88.801 80.3188 87.841Z" fill="#E9EAE9"/>
<path d="M71.7202 85.6542C71.1775 84.6796 70.0375 84.4516 68.7175 85.2142C66.8735 86.2782 65.3828 88.8649 65.3828 90.9929C65.3828 92.4742 66.1068 93.3409 67.1708 93.3702L67.1695 93.3729L72.5882 93.5249L74.4775 90.1369L71.7202 85.6542Z" fill="#D3D4D3"/>
<path d="M74.6909 90.8769C74.6909 91.7823 74.0548 92.8823 73.2735 93.3343C72.4908 93.7849 71.8535 93.4196 71.8535 92.5156C71.8535 91.6103 72.4908 90.5116 73.2735 90.0583C74.0548 89.6063 74.6909 89.9743 74.6909 90.8769Z" fill="#BBBCBD"/>
<path d="M19.855 154.66C17.9216 154.66 15.9883 154.234 14.5136 153.382C11.567 151.68 11.567 148.918 14.5163 147.217C15.9896 146.365 17.9216 145.94 19.855 145.94C21.787 145.94 23.7203 146.365 25.1949 147.217C28.1443 148.918 28.1443 151.68 25.1949 153.382C23.7203 154.234 21.787 154.66 19.855 154.66Z" fill="#66A4B1"/>
<path d="M25.3362 149.508H14.3735V150.153C14.3735 150.964 14.9069 151.773 15.9789 152.393C18.1202 153.628 21.5909 153.628 23.7309 152.393C24.8015 151.773 25.3362 150.964 25.3362 150.153V149.508Z" fill="#8F9295"/>
<path d="M23.731 151.748C21.591 152.984 18.1204 152.984 15.979 151.748C13.8377 150.512 13.8377 148.508 15.979 147.272C18.1204 146.034 21.591 146.034 23.731 147.272C25.8724 148.508 25.8724 150.51 23.731 151.748Z" fill="#E9EAE9"/>
<path d="M23.6777 148.093H16.0337V149.194C16.0337 149.76 16.4044 150.325 17.1524 150.757C18.6457 151.62 21.0644 151.62 22.5577 150.757C23.307 150.325 23.6777 149.76 23.6777 149.194V148.093Z" fill="#8F9295"/>
<path d="M22.5576 149.65C21.0642 150.516 18.6456 150.516 17.1522 149.65C15.6589 148.792 15.6589 147.393 17.1522 146.53C18.6456 145.669 21.0642 145.669 22.5576 146.53C24.0522 147.393 24.0522 148.79 22.5576 149.65Z" fill="#E9EAE9"/>
<path d="M22.1162 123.24H17.5935V147.906C17.5935 148.24 17.8149 148.573 18.2575 148.828C19.1375 149.337 20.5695 149.337 21.4522 148.828C21.8962 148.573 22.1162 148.24 22.1162 147.906V123.24Z" fill="#BBBCBD"/>
<path d="M21.4524 124.162C20.5697 124.672 19.1377 124.672 18.2577 124.162C17.375 123.653 17.375 122.828 18.2577 122.317C19.1377 121.806 20.5697 121.806 21.4524 122.317C22.3364 122.828 22.3364 123.653 21.4524 124.162Z" fill="#E9EAE9"/>
<path d="M20.8243 69.3223H18.887V123.145C18.887 123.288 18.9803 123.432 19.1696 123.54C19.5483 123.758 20.1643 123.758 20.5416 123.54C20.731 123.432 20.8243 123.288 20.8243 123.145V69.3223Z" fill="#8F9295"/>
<path d="M20.5415 69.7183C20.1642 69.9357 19.5482 69.9357 19.1695 69.7183C18.7908 69.4983 18.7908 69.1437 19.1695 68.925C19.5482 68.7064 20.1642 68.7064 20.5415 68.925C20.9188 69.1437 20.9188 69.4983 20.5415 69.7183Z" fill="#7A7E82"/>
<path d="M17.6936 71.1104L22.4109 63.077L14.3176 59.8944V59.8957C13.9003 59.729 13.3643 59.793 12.7816 60.1317C11.4629 60.8917 10.3962 62.7397 10.3962 64.261C10.3962 64.9117 10.5936 65.397 10.9243 65.6797V65.681L10.9296 65.6877L10.9576 65.7104L17.6936 71.1104Z" fill="#D3D4D3"/>
<path d="M23.7468 65.3863C23.7468 67.5143 22.2535 70.0996 20.4108 71.1636C18.5695 72.2263 17.0762 71.3636 17.0762 69.237C17.0762 67.1103 18.5695 64.525 20.4108 63.4623C22.2535 62.3983 23.7468 63.2596 23.7468 65.3863Z" fill="#BBBCBD"/>
<path d="M21.9309 40.281L22.1016 39.5743L21.2283 39.0689C21.0883 38.9809 20.9429 38.9756 20.7936 39.0623C19.5283 39.7916 18.5029 46.7583 18.5029 54.6196C18.5029 62.481 19.5283 68.2636 20.7936 67.5329C22.0576 66.8036 23.0843 59.8383 23.0843 51.9756C23.0843 46.6849 22.6189 42.3383 21.9309 40.281Z" fill="white"/>
<path d="M24.007 52.5076C24.007 60.3703 22.9816 67.3356 21.7176 68.0662C20.4523 68.7969 19.4243 63.0156 19.4243 55.1529C19.4243 47.2903 20.4523 40.3263 21.7176 39.5943C22.9816 38.8649 24.007 44.6463 24.007 52.5076Z" fill="#E9EAE9"/>
<path d="M20.7935 67.5116C20.1082 66.6809 14.9135 72.1396 9.19218 79.7049C3.47218 87.2703 -0.609167 94.0769 0.0748327 94.9089L0.130822 94.9543L1.06682 95.4969L1.94951 94.2796L1.69085 94.1623C3.79351 92.4236 7.6015 88.1036 11.6762 82.7156C17.3962 75.1489 21.4815 68.3423 20.7935 67.5116Z" fill="white"/>
<path d="M10.1149 80.2382C15.8375 72.6716 21.0309 67.2129 21.7175 68.0449C22.4042 68.8756 18.3202 75.6836 12.5989 83.2476C6.87886 90.8129 1.68153 96.2729 1.00019 95.4422C0.312194 94.6102 4.39487 87.8036 10.1149 80.2382Z" fill="#E9EAE9"/>
<path d="M32.3949 66.3089C26.6723 65.3502 21.4789 65.8889 20.7936 67.5129C20.1083 69.1356 24.1909 71.2276 29.9109 72.1876C35.6309 73.1463 40.8269 72.6076 41.5123 70.9849C42.1989 69.3623 38.1163 67.2676 32.3949 66.3089Z" fill="white"/>
<path d="M33.3188 66.841C27.5961 65.8836 22.4014 66.421 21.7174 68.045C21.0308 69.6676 25.1134 71.761 30.8348 72.7196C36.5548 73.6783 41.7494 73.141 42.4361 71.517C43.1188 69.8943 39.0388 67.801 33.3188 66.841Z" fill="#E9EAE9"/>
<path d="M24.7202 64.6542C24.1775 63.6796 23.0375 63.4516 21.7175 64.2142C19.8735 65.2782 18.3828 67.8649 18.3828 69.9929C18.3828 71.4742 19.1068 72.3409 20.1708 72.3702L20.1695 72.3729L25.5882 72.5249L27.4775 69.1369L24.7202 64.6542Z" fill="#D3D4D3"/>
<path d="M27.6909 69.8769C27.6909 70.7823 27.0548 71.8823 26.2735 72.3343C25.4908 72.7849 24.8535 72.4196 24.8535 71.5156C24.8535 70.6103 25.4908 69.5116 26.2735 69.0583C27.0548 68.6063 27.6909 68.9743 27.6909 69.8769Z" fill="#BBBCBD"/>
</svg>
