<svg width="128" height="103" viewBox="0 0 128 103" fill="none" xmlns="http://www.w3.org/2000/svg">
<path d="M43.2902 102.52L0.378174 77.744L3.3875 76.0053L43.2902 99.0427L124.217 52.32L127.229 54.0587L43.2902 102.52Z" fill="#66A4B1"/>
<path d="M125.814 54.0587L43.2903 101.703V99.0426L125.814 51.3987V54.0587Z" fill="#BBBCBD"/>
<path d="M43.2903 99.0426V101.703L1.79297 77.744V75.084L43.2903 99.0426Z" fill="#E9EAE9"/>
<path d="M125.814 51.3987L43.2903 99.0427L1.79297 75.0841L84.317 27.4387L125.814 51.3987Z" fill="white"/>
<path d="M59.0035 58.7587L47.6062 52.1787L65.2409 41.996C65.4142 41.2133 66.0155 40.4573 67.0569 39.8573C68.0969 39.256 69.4075 38.9093 70.7622 38.8093L83.4795 31.468L94.8769 38.048L59.0035 58.7587Z" fill="#B0B0AE"/>
<path d="M77.0555 41.6747H66.0916V42.32C66.0916 43.1293 66.6276 43.94 67.6969 44.5574C69.8382 45.7947 73.3102 45.7947 75.4502 44.5574C76.5222 43.9374 77.0555 43.1293 77.0555 42.32V41.6747Z" fill="#8F9295"/>
<path d="M75.4503 43.912C73.3103 45.148 69.8384 45.148 67.697 43.912C65.5584 42.6773 65.5584 40.672 67.697 39.4373C69.8384 38.2 73.3103 38.2 75.4503 39.4373C77.593 40.672 77.593 42.676 75.4503 43.912Z" fill="#E9EAE9"/>
<path d="M75.3969 40.2601H67.7502V41.3614C67.7502 41.9281 68.1249 42.4921 68.8716 42.9241C70.3649 43.7854 72.7849 43.7854 74.2769 42.9241C75.0236 42.4921 75.3969 41.9281 75.3969 41.3614V40.2601Z" fill="#8F9295"/>
<path d="M74.277 41.8201C72.785 42.6814 70.365 42.6814 68.8717 41.8201C67.3784 40.9574 67.3784 39.5601 68.8717 38.6987C70.365 37.8361 72.785 37.8361 74.277 38.6987C75.7704 39.5601 75.7704 40.9574 74.277 41.8201Z" fill="#E9EAE9"/>
<path d="M73.8355 36.4787H69.3142V40.0733C69.3142 40.4053 69.5355 40.74 69.9755 40.9947C70.8582 41.5054 72.2902 41.5054 73.1729 40.9947C73.6155 40.74 73.8355 40.4053 73.8355 40.0733V36.4787Z" fill="#BBBCBD"/>
<path d="M73.1731 37.4014C72.2904 37.9108 70.8584 37.9108 69.9757 37.4014C69.0931 36.8908 69.0931 36.0654 69.9757 35.5561C70.8584 35.0468 72.2904 35.0468 73.1731 35.5561C74.0544 36.0654 74.0544 36.8908 73.1731 37.4014Z" fill="#E9EAE9"/>
<path d="M72.545 19.5587H70.605V36.3827C70.605 36.5253 70.6996 36.6693 70.889 36.7787C71.2676 36.996 71.881 36.996 72.261 36.7787C72.449 36.6693 72.545 36.5253 72.545 36.3827V19.5587Z" fill="#8F9295"/>
<path d="M72.261 19.9547C71.881 20.172 71.2676 20.172 70.889 19.9547C70.5103 19.7373 70.5103 19.3814 70.889 19.1627C71.2676 18.944 71.881 18.944 72.261 19.1627C72.6383 19.3814 72.6383 19.7373 72.261 19.9547Z" fill="#7A7E82"/>
<path d="M59.3701 39.9L56.5462 35.7667L50.3568 24.9387L48.2715 20.676L83.7782 0.178673L94.8768 19.4014L59.3701 39.9Z" fill="#BBBCBD"/>
<path d="M59.7115 38.5227L49.6355 21.0694L83.4355 1.55604L93.5128 19.0094L59.7115 38.5227Z" fill="#325988"/>
<path d="M89.6904 19.412L88.4997 17.352L90.5597 16.1614L91.7504 18.224L89.6904 19.412ZM87.5664 20.6387L86.3771 18.5774L88.4384 17.388L89.6291 19.4494L87.5664 20.6387ZM85.4451 21.8641L84.2544 19.8027L86.317 18.6134L87.5064 20.6747L85.4451 21.8641ZM83.3237 23.0894L82.1317 21.0281L84.1931 19.8387L85.3837 21.9001L83.3237 23.0894ZM81.1997 24.3147L80.0117 22.2534L82.0717 21.0641L83.2624 23.1254L81.1997 24.3147ZM79.0784 25.54L77.8877 23.48L79.949 22.2894L81.1384 24.3494L79.0784 25.54ZM76.957 26.7654L75.7664 24.7054L77.8264 23.5147L79.017 25.5747L76.957 26.7654ZM75.757 27.4574L74.8344 27.9907L73.6437 25.9294L74.5677 25.3961L75.705 24.74L76.8944 26.8001L75.757 27.4574ZM72.7117 29.216L71.5224 27.1547L73.5824 25.9641L74.773 28.0254L72.7117 29.216ZM70.589 30.4414L69.3997 28.38L71.4611 27.1894L72.6504 29.2507L70.589 30.4414ZM68.4677 31.6654L67.2771 29.6054L69.3384 28.4147L70.5277 30.476L68.4677 31.6654ZM66.3451 32.8907L65.1557 30.8307L67.2157 29.64L68.4064 31.7014L66.3451 32.8907ZM64.2224 34.1174L63.033 32.056L65.0944 30.8654L66.2837 32.9267L64.2224 34.1174ZM62.101 35.3414L60.9104 33.2814L62.9704 32.0907L64.1611 34.152L62.101 35.3414ZM59.9784 36.5667L58.789 34.5067L60.849 33.3174L62.0397 35.3787L59.9784 36.5667ZM57.5637 32.384L59.6237 31.1947L60.8131 33.256L58.753 34.4454L57.5637 32.384ZM56.337 30.2627L58.3984 29.072L59.5877 31.1321L57.5264 32.324L56.337 30.2627ZM55.1117 28.1387L57.173 26.9507L58.3624 29.0107L56.3024 30.2014L55.1117 28.1387ZM53.8864 26.0187L55.9464 24.8281L57.137 26.8894L55.0771 28.0787L53.8864 26.0187ZM52.6611 23.8961L54.7224 22.7054L55.9131 24.7667L53.8517 25.956L52.6611 23.8961ZM51.4357 21.7734L53.4971 20.584L54.685 22.644L52.625 23.8347L51.4357 21.7734ZM55.6184 19.3574L56.809 21.4187L54.7477 22.6094L53.5584 20.548L55.6184 19.3574ZM57.7397 18.1334L58.9317 20.1934L56.8704 21.384L55.6797 19.324L57.7397 18.1334ZM59.8637 16.908L61.0544 18.9681L58.9917 20.1574L57.8037 18.0974L59.8637 16.908ZM61.985 15.6827L63.1757 17.7427L61.1157 18.9321L59.925 16.872L61.985 15.6827ZM64.1077 14.4574L65.2984 16.5187L63.237 17.708L62.0464 15.6467L64.1077 14.4574ZM66.2304 13.2321L67.4197 15.2934L65.3584 16.4827L64.169 14.4214L66.2304 13.2321ZM67.2144 12.6627L68.3517 12.0067L69.5437 14.0681L68.405 14.724L67.4811 15.2574L66.2917 13.1961L67.2144 12.6627ZM70.4744 10.7814L71.6637 12.8427L69.6037 14.0321L68.4131 11.9707L70.4744 10.7814ZM72.5971 9.55471L73.7864 11.6174L71.7264 12.8067L70.5357 10.7454L72.5971 9.55471ZM74.7184 8.33072L75.9077 10.3921L73.8477 11.5814L72.6584 9.52005L74.7184 8.33072ZM76.841 7.10536L78.0317 9.16539L75.9704 10.356L74.7811 8.29605L76.841 7.10536ZM78.9637 5.88004L80.153 7.94137L78.0931 9.13072L76.9024 7.0707L78.9637 5.88004ZM81.0864 4.65471L82.2757 6.71471L80.2144 7.9067L79.0251 5.84537L81.0864 4.65471ZM83.2077 3.42939L84.3984 5.49072L82.3357 6.68004L81.1477 4.62005L83.2077 3.42939ZM85.6237 7.61204L83.5624 8.8027L82.373 6.74137L84.433 5.55204L85.6237 7.61204ZM86.849 9.73473L84.7877 10.924L83.5971 8.86406L85.657 7.67337L86.849 9.73473ZM88.073 11.8574L86.0131 13.0467L84.8237 10.9854L86.8837 9.79605L88.073 11.8574ZM89.2997 13.9787L87.2384 15.1694L86.049 13.108L88.1091 11.9174L89.2997 13.9787ZM85.153 16.456L87.2131 15.2667L88.4024 17.3267L86.3424 18.516L85.153 16.456ZM83.0291 17.6814L85.0917 16.4907L86.2797 18.552L84.2197 19.7414L83.0291 17.6814ZM80.9077 18.9067L82.9677 17.716L84.1584 19.7774L82.0984 20.9667L80.9077 18.9067ZM78.785 20.1307L80.8464 18.9414L82.037 21.0027L79.9744 22.1921L78.785 20.1307ZM76.6624 21.356L78.7251 20.1667L79.9131 22.2281L77.853 23.4187L76.6624 21.356ZM74.541 22.5814L76.601 21.3921L77.7917 23.4534L75.7317 24.6427L74.541 22.5814ZM70.2957 25.0321L72.357 23.8427L73.5464 25.904L71.4864 27.0947L70.2957 25.0321ZM68.1744 26.2574L70.2344 25.0681L71.425 27.1294L69.3637 28.3187L68.1744 26.2574ZM66.0517 27.4827L68.1131 26.2934L69.3024 28.3534L67.2424 29.544L66.0517 27.4827ZM63.9291 28.7094L65.9904 27.5187L67.1811 29.5787L65.1197 30.7694L63.9291 28.7094ZM61.8064 29.9347L63.869 28.7427L65.0584 30.804L62.9971 31.9947L61.8064 29.9347ZM61.7464 29.9694L62.9357 32.0294L60.8744 33.22L59.685 31.1587L61.7464 29.9694ZM60.5197 27.8467L61.7117 29.908L59.649 31.0987L58.4597 29.0374L60.5197 27.8467ZM59.2957 25.7254L60.485 27.7854L58.4237 28.976L57.233 26.9147L59.2957 25.7254ZM58.0704 23.6027L59.2597 25.6641L57.1984 26.852L56.009 24.792L58.0704 23.6027ZM58.0344 23.5414L55.973 24.7321L54.7837 22.6707L56.8437 21.48L58.0344 23.5414ZM60.157 22.316L58.0957 23.5054L56.9064 21.4454L58.9664 20.2547L60.157 22.316ZM62.2784 21.0907L60.217 22.28L59.0277 20.22L61.089 19.0294L62.2784 21.0907ZM64.401 19.8654L62.341 21.056L61.1504 18.9934L63.2117 17.804L64.401 19.8654ZM66.5224 18.64L64.4624 19.8307L63.2717 17.7694L65.3317 16.5787L66.5224 18.64ZM68.6451 17.4147L66.5837 18.6054L65.3957 16.544L67.4557 15.3547L68.6451 17.4147ZM72.8904 14.9641L70.8291 16.1534L69.6384 14.0934L71.6997 12.904L72.8904 14.9641ZM75.0117 13.74L72.9504 14.9294L71.7611 12.8681L73.8224 11.6774L75.0117 13.74ZM77.1344 12.5147L75.073 13.7027L73.8837 11.6427L75.9437 10.4534L77.1344 12.5147ZM79.257 11.2894L77.1957 12.4787L76.005 10.4174L78.0664 9.22672L79.257 11.2894ZM81.3784 10.0641L79.3184 11.2534L78.1291 9.19205L80.189 8.00139L81.3784 10.0641ZM81.4397 10.0267L80.2504 7.96673L82.3104 6.77604L83.501 8.83736L81.4397 10.0267ZM82.6664 12.1494L81.4757 10.0894L83.537 8.90006L84.7264 10.9601L82.6664 12.1494ZM83.8904 14.272L82.701 12.2107L84.7624 11.0214L85.9517 13.0814L83.8904 14.272ZM83.9264 14.3334L85.9877 13.144L87.1771 15.204L85.117 16.3947L83.9264 14.3334ZM81.8037 15.5587L83.865 14.3694L85.0544 16.4294L82.9944 17.62L81.8037 15.5587ZM79.6824 16.784L81.7424 15.5934L82.933 17.6547L80.8717 18.8454L79.6824 16.784ZM77.5597 18.0094L79.621 16.82L80.8104 18.88L78.749 20.0707L77.5597 18.0094ZM75.437 19.2347L77.4984 18.044L78.6877 20.1054L76.6277 21.2961L75.437 19.2347ZM73.3157 20.4601L75.3771 19.2707L76.5664 21.3307L74.505 22.52L73.3157 20.4601ZM69.0704 22.9094L71.1317 21.7214L72.321 23.7814L70.2611 24.9707L69.0704 22.9094ZM66.949 24.136L69.0091 22.9467L70.1997 25.0067L68.1384 26.1961L66.949 24.136ZM64.8264 25.3601L66.8864 24.1707L68.0771 26.2321L66.017 27.4214L64.8264 25.3601ZM62.7037 26.5867L64.7664 25.3961L65.9544 27.4574L63.8944 28.6467L62.7037 26.5867ZM62.6424 26.6227L63.833 28.6827L61.7717 29.8734L60.5811 27.812L62.6424 26.6227ZM61.417 24.5001L62.6077 26.5601L60.5464 27.7507L59.357 25.6894L61.417 24.5001ZM61.3811 24.4387L59.321 25.6281L58.1304 23.5667L60.1917 22.3774L61.3811 24.4387ZM63.505 23.2134L61.4437 24.4027L60.253 22.3427L62.3144 21.152L63.505 23.2134ZM65.6264 21.9867L63.565 23.1774L62.3757 21.116L64.437 19.9267L65.6264 21.9867ZM67.7477 20.7627L65.6877 21.952L64.4984 19.8921L66.5584 18.7014L67.7477 20.7627ZM69.8717 19.536L67.8104 20.7267L66.6197 18.6667L68.6811 17.476L69.8717 19.536ZM71.9931 18.312L70.8544 18.9681L69.933 19.5014L68.7424 17.4414L69.665 16.908L70.8024 16.2507L71.9931 18.312ZM74.1144 17.0867L72.0544 18.276L70.8637 16.2147L72.9251 15.0254L74.1144 17.0867ZM76.237 15.8614L74.1771 17.0507L72.9877 14.9894L75.0477 13.8001L76.237 15.8614ZM78.3597 14.636L76.2984 15.8267L75.1091 13.7654L77.169 12.5747L78.3597 14.636ZM80.4824 13.4107L78.421 14.6014L77.2304 12.54L79.2931 11.3507L80.4824 13.4107ZM80.5437 13.3747L79.353 11.3147L81.4144 10.1254L82.6037 12.1854L80.5437 13.3747ZM80.5784 13.4374L82.6397 12.2467L83.8304 14.3067L81.769 15.4974L80.5784 13.4374ZM78.4557 14.6627L80.517 13.472L81.7077 15.5334L79.6464 16.7227L78.4557 14.6627ZM76.3344 15.8867L78.3944 14.6974L79.585 16.7574L77.5237 17.948L76.3344 15.8867ZM74.2117 17.1134L76.2717 15.9227L77.4624 17.9827L75.401 19.1734L74.2117 17.1134ZM72.0904 18.3374L74.1517 17.148L75.3397 19.2094L73.2797 20.3987L72.0904 18.3374ZM67.8451 20.7894L69.9064 19.5987L71.0971 21.6601L69.0357 22.8494L67.8451 20.7894ZM65.7237 22.0134L67.7837 20.8227L68.9744 22.884L66.9117 24.0747L65.7237 22.0134ZM64.7291 25.3347L62.669 26.524L61.4784 24.4627L63.5397 23.2747L64.7291 25.3347ZM63.601 23.2387L65.6624 22.0494L66.8517 24.1094L64.7917 25.2987L63.601 23.2387ZM72.0811 21.0907L71.157 21.624L69.9664 19.5627L70.8904 19.0294L72.0291 18.3734L73.2184 20.4347L72.0811 21.0907ZM73.3064 23.2134L72.3824 23.7454L71.1917 21.6854L72.1157 21.1534L73.2544 20.4947L74.4437 22.556L73.3064 23.2134ZM68.4397 14.7854L69.5771 14.1294L70.7677 16.1894L69.6304 16.8467L68.7064 17.3787L67.517 15.32L68.4397 14.7854ZM74.5304 25.3347L73.6077 25.8694L72.4184 23.808L73.3424 23.2747H73.341L74.4797 22.6174L75.669 24.6787L74.5304 25.3347ZM90.5251 16.1014L88.4637 17.2921L87.2744 15.2307L89.3344 14.04L90.5251 16.1014ZM92.769 17.7174L92.7357 17.656L91.8117 18.188L90.621 16.1281L91.5451 15.5947L91.5091 15.5334L90.5864 16.0654L89.3971 14.0054L90.3197 13.4734L90.2837 13.4107L89.3611 13.944L88.1704 11.884L89.0944 11.3507L89.0584 11.2894L88.1344 11.8227L86.9451 9.76005L87.869 9.22805L87.833 9.16673L86.9104 9.70006L85.7197 7.6387L86.6424 7.10536L86.6077 7.04404L85.6837 7.57737L84.4944 5.51738L85.4184 4.98404L85.3824 4.92138L84.4597 5.45605L83.269 3.39472L84.1917 2.86139L84.157 2.80006L83.233 3.33339L82.5144 2.08671L82.453 2.12272L83.1717 3.36806L81.1117 4.55872L80.3917 3.31204L80.3304 3.34671L81.0504 4.59339L78.989 5.78404L78.269 4.53736L78.2091 4.57203L78.9291 5.81871L76.8677 7.00937L76.1477 5.76272L76.085 5.79739L76.8064 7.04404L74.7437 8.23473L74.0251 6.98805L73.9637 7.02272L74.6837 8.26936L72.6224 9.46005L71.9037 8.21337L71.8424 8.24804L72.5611 9.49472L70.4997 10.6854L69.7797 9.4387L69.7184 9.47337L70.4384 10.7187L68.3784 11.9094L67.6584 10.6627L67.5971 10.7001L68.317 11.9454L67.1797 12.6014L66.2557 13.1347L65.537 11.888L65.4757 11.9254L66.1944 13.1707L64.133 14.3601L63.4144 13.1147L63.3517 13.1494L64.073 14.3961L62.0117 15.5854L61.2917 14.3387L61.2304 14.376L61.9504 15.6214L59.889 16.8107L59.1704 15.5641L59.1077 15.6001L59.8277 16.8467L57.7677 18.036L57.0477 16.7894L56.9864 16.8254L57.7064 18.072L55.6451 19.2614L54.925 18.0147L54.8637 18.0507L55.5837 19.2974L53.5224 20.488L52.8024 19.2414L52.741 19.276L53.4611 20.5214L51.3997 21.7134L50.6811 20.4654L50.6197 20.5014L51.3384 21.7467L50.3557 22.316L50.3904 22.3774L51.3744 21.808L52.565 23.8694L51.5811 24.4374L51.6157 24.4987L52.5997 23.9307L53.789 25.9907L52.8064 26.5587L52.8424 26.6214L53.825 26.0534L55.0157 28.1134L54.0317 28.6827L54.0677 28.7427L55.0504 28.176L56.2397 30.236L55.257 30.804L55.2931 30.8654L56.2757 30.2974L57.4664 32.3587L56.4824 32.9267L56.517 32.9894L57.5024 32.42L58.6917 34.48L57.7064 35.0494L57.7424 35.1107L58.7277 34.5414L59.9157 36.6027L58.9317 37.1707L58.9677 37.2321L59.953 36.6641L60.6971 37.9547L60.7584 37.9187L60.0131 36.6281L62.0744 35.4387L62.8197 36.7281L62.8797 36.6934L62.1357 35.404L64.1971 34.2134L64.941 35.5027L65.0037 35.4681L64.2584 34.1774L66.3197 32.9894L67.0637 34.2787L67.125 34.2414L66.3797 32.952L68.441 31.7627L69.185 33.052L69.2464 33.0174L68.5024 31.7281L70.5637 30.5374L71.3091 31.8281L71.3704 31.792L70.625 30.5014L72.6864 29.312L73.4304 30.6027L73.4917 30.5667L72.7464 29.2774L74.8077 28.0867L75.5517 29.3774L75.6131 29.3414L74.869 28.052L75.7917 27.5187L76.9304 26.8614L77.6757 28.152L77.737 28.116L76.9904 26.8267L79.0517 25.636L79.7971 26.9267L79.8584 26.8907L79.1144 25.6014L81.1744 24.4107L81.9184 25.7014L81.9811 25.6654L81.2357 24.376L83.2957 23.1854L84.041 24.476L84.1024 24.44L83.3584 23.152L85.4197 21.9614L86.1637 23.2494L86.2251 23.216L85.4811 21.9254L87.5411 20.736L88.2864 22.0254L88.3477 21.9907L87.6024 20.7001L89.6637 19.5107L90.4077 20.8001L90.469 20.7654L89.7237 19.4747L91.785 18.2854L92.5304 19.5747L92.5917 19.54L91.8477 18.2494L92.769 17.7174Z" fill="#214265"/>
<path d="M58.7049 40.2841L47.6062 21.0614L48.2715 20.6761L59.3702 39.9001L58.7049 40.2841Z" fill="#E9EAE9"/>
<path d="M82.7903 72.4907L71.3916 65.9107L89.0276 55.7294C89.2009 54.9467 89.8009 54.1894 90.8409 53.5894C91.8809 52.9894 93.1916 52.6427 94.5463 52.5427L107.265 45.1987L118.662 51.78L82.7903 72.4907Z" fill="#B0B0AE"/>
<path d="M100.842 55.408H89.8782V56.052C89.8782 56.8626 90.4128 57.672 91.4835 58.2893C93.6248 59.5253 97.0955 59.5253 99.2368 58.2893C100.307 57.672 100.842 56.8626 100.842 56.052V55.408Z" fill="#8F9295"/>
<path d="M99.237 57.6453C97.0957 58.8813 93.625 58.8813 91.4837 57.6453C89.3437 56.4093 89.3437 54.4053 91.4837 53.1693C93.625 51.9346 97.0957 51.9346 99.237 53.1693C101.378 54.4053 101.378 56.4079 99.237 57.6453Z" fill="#E9EAE9"/>
<path d="M99.1822 53.992H91.5369V55.0947C91.5369 55.66 91.9102 56.2253 92.6569 56.656C94.1502 57.5173 96.5702 57.5173 98.0635 56.656C98.8102 56.2253 99.1822 55.66 99.1822 55.0947V53.992Z" fill="#8F9295"/>
<path d="M98.0635 55.552C96.5702 56.4146 94.1502 56.4146 92.6569 55.552C91.1635 54.6893 91.1635 53.292 92.6569 52.4307C94.1502 51.568 96.5702 51.568 98.0635 52.4307C99.5555 53.292 99.5555 54.6893 98.0635 55.552Z" fill="#E9EAE9"/>
<path d="M97.6208 50.2107H93.1008V53.8053C93.1008 54.1373 93.3195 54.472 93.7622 54.728C94.6435 55.236 96.0755 55.236 96.9582 54.728C97.4008 54.472 97.6208 54.1373 97.6208 53.8053V50.2107Z" fill="#BBBCBD"/>
<path d="M96.9584 51.1346C96.0757 51.6426 94.6437 51.6426 93.7624 51.1346C92.8784 50.624 92.8784 49.7973 93.7624 49.2879C94.6437 48.7773 96.0757 48.7773 96.9584 49.2879C97.841 49.7973 97.841 50.624 96.9584 51.1346Z" fill="#E9EAE9"/>
<path d="M96.3304 33.2907H94.3904V50.116C94.3904 50.2587 94.4864 50.4027 94.6744 50.5107C95.053 50.7293 95.6664 50.7293 96.0451 50.5107C96.2357 50.4027 96.3304 50.2587 96.3304 50.116V33.2907Z" fill="#8F9295"/>
<path d="M96.0451 33.6867C95.6664 33.9054 95.053 33.9054 94.6744 33.6867C94.2957 33.468 94.2957 33.1147 94.6744 32.8947C95.053 32.6774 95.6664 32.6774 96.0451 32.8947C96.4237 33.1147 96.4237 33.468 96.0451 33.6867Z" fill="#7A7E82"/>
<path d="M83.1569 53.6333L80.3329 49.4986L74.1422 38.6719L72.0569 34.4093L107.564 13.9106L118.662 33.1333L83.1569 53.6333Z" fill="#BBBCBD"/>
<path d="M83.4982 52.2546L73.4209 34.8013L107.222 15.2893L117.298 32.7413L83.4982 52.2546Z" fill="#325988"/>
<path d="M113.476 33.1468L112.285 31.0854L114.346 29.8948L115.536 31.9574L113.476 33.1468ZM111.353 34.3708L110.164 32.3108L112.224 31.1201L113.413 33.1814L111.353 34.3708ZM109.23 35.5961L108.041 33.5361L110.101 32.3468L111.292 34.4068L109.23 35.5961ZM107.108 36.8228L105.918 34.7614L107.98 33.5721L109.169 35.6321L107.108 36.8228ZM104.986 38.0481L103.796 35.9868L105.857 34.7961L107.046 36.8574L104.986 38.0481ZM102.864 39.2734L101.674 37.2121L103.736 36.0214L104.925 38.0828L102.864 39.2734ZM100.741 40.4974L99.5515 38.4361L101.612 37.2468L102.802 39.3081L100.741 40.4974ZM99.5422 41.1894L98.6195 41.7228L97.4302 39.6628L98.3515 39.1294L99.4902 38.4721L100.681 40.5334L99.5422 41.1894ZM96.4969 42.9481L95.3075 40.8881L97.3689 39.6974L98.5582 41.7588L96.4969 42.9481ZM94.3755 44.1734L93.1849 42.1134L95.2462 40.9228L96.4355 42.9841L94.3755 44.1734ZM92.2529 45.3988L91.0622 43.3388L93.1235 42.1481L94.3142 44.2094L92.2529 45.3988ZM90.1302 46.6241L88.9409 44.5641L91.0022 43.3734L92.1915 45.4334L90.1302 46.6241ZM88.0089 47.8494L86.8182 45.7894L88.8795 44.5988L90.0689 46.6601L88.0089 47.8494ZM85.8862 49.0748L84.6955 47.0134L86.7569 45.8241L87.9462 47.8854L85.8862 49.0748ZM83.7635 50.2988L82.5742 48.2388L84.6342 47.0481L85.8249 49.1108L83.7635 50.2988ZM81.3489 46.1174L83.4089 44.9268L84.5982 46.9881L82.5382 48.1788L81.3489 46.1174ZM80.1222 43.9934L82.1835 42.8041L83.3742 44.8654L81.3129 46.0561L80.1222 43.9934ZM78.8969 41.8721L80.9582 40.6828L82.1489 42.7441L80.0875 43.9334L78.8969 41.8721ZM77.6729 39.7508L79.7329 38.5614L80.9235 40.6201L78.8609 41.8108L77.6729 39.7508ZM76.4462 37.6281L78.5075 36.4388L79.6982 38.5001L77.6355 39.6894L76.4462 37.6281ZM75.2209 35.5068L77.2822 34.3161L78.4715 36.3774L76.4102 37.5668L75.2209 35.5068ZM79.4049 33.0908L80.5942 35.1521L78.5329 36.3414L77.3435 34.2801L79.4049 33.0908ZM81.5262 31.8654L82.7155 33.9268L80.6555 35.1161L79.4662 33.0548L81.5262 31.8654ZM83.6489 30.6401L84.8395 32.7001L82.7782 33.8908L81.5875 31.8294L83.6489 30.6401ZM85.7715 29.4161L86.9609 31.4761L84.9009 32.6654L83.7102 30.6041L85.7715 29.4161ZM87.8929 28.1894L89.0835 30.2508L87.0222 31.4401L85.8315 29.3801L87.8929 28.1894ZM90.0155 26.9641L91.2062 29.0254L89.1449 30.2148L87.9542 28.1548L90.0155 26.9641ZM91.0009 26.3961L92.1382 25.7388L93.3275 27.8001L92.1902 28.4561L91.2662 28.9908L90.0769 26.9294L91.0009 26.3961ZM94.2609 24.5134L95.4502 26.5748L93.3889 27.7641L92.1995 25.7041L94.2609 24.5134ZM96.3809 23.2881L97.5729 25.3494L95.5115 26.5401L94.3209 24.4788L96.3809 23.2881ZM98.5049 22.0628L99.6942 24.1241L97.6329 25.3148L96.4435 23.2534L98.5049 22.0628ZM100.626 20.8374L101.817 22.8988L99.7555 24.0881L98.5662 22.0281L100.626 20.8374ZM102.749 19.6134L103.938 21.6734L101.878 22.8641L100.688 20.8015L102.749 19.6134ZM104.87 18.3868L106.061 20.4481L104 21.6374L102.81 19.5774L104.87 18.3868ZM106.993 17.1628L108.184 19.2228L106.122 20.4134L104.932 18.3521L106.993 17.1628ZM109.409 21.3454L107.349 22.5348L106.158 20.4734L108.218 19.2841L109.409 21.3454ZM110.634 23.4668L108.573 24.6574L107.384 22.5974L109.444 21.4068L110.634 23.4668ZM111.86 25.5894L109.798 26.7788L108.608 24.7188L110.669 23.5294L111.86 25.5894ZM113.085 27.7121L111.024 28.9014L109.834 26.8401L111.896 25.6521L113.085 27.7121ZM108.938 30.1881L110.998 28.9988L112.188 31.0588L110.128 32.2494L108.938 30.1881ZM106.816 31.4134L108.876 30.2228L110.066 32.2841L108.005 33.4748L106.816 31.4134ZM104.693 32.6388L106.754 31.4481L107.944 33.5108L105.884 34.7001L104.693 32.6388ZM102.572 33.8641L104.632 32.6748L105.821 34.7361L103.761 35.9254L102.572 33.8641ZM100.448 35.0894L102.51 33.8988L103.7 35.9614L101.638 37.1494L100.448 35.0894ZM98.3262 36.3148L100.386 35.1254L101.577 37.1854L99.5169 38.3761L98.3262 36.3148ZM94.0809 38.7654L96.1422 37.5748L97.3315 39.6361L95.2715 40.8268L94.0809 38.7654ZM91.9595 39.9908L94.0195 38.8014L95.2102 40.8614L93.1502 42.0521L91.9595 39.9908ZM89.8369 41.2148L91.8982 40.0254L93.0889 42.0868L91.0275 43.2774L89.8369 41.2148ZM87.7142 42.4401L89.7755 41.2508L90.9649 43.3121L88.9049 44.5028L87.7142 42.4401ZM85.5929 43.6668L87.6542 42.4761L88.8435 44.5374L86.7822 45.7268L85.5929 43.6668ZM85.5315 43.7014L86.7222 45.7628L84.6595 46.9521L83.4702 44.8921L85.5315 43.7014ZM84.3062 41.5801L85.4955 43.6401L83.4342 44.8308L82.2435 42.7694L84.3062 41.5801ZM83.0809 39.4574L84.2702 41.5188L82.2102 42.7081L81.0195 40.6468L83.0809 39.4574ZM81.8542 37.3348L83.0449 39.3961L80.9849 40.5854L79.7942 38.5241L81.8542 37.3348ZM81.8209 37.2734L79.7582 38.4641L78.5689 36.4041L80.6289 35.2134L81.8209 37.2734ZM83.9409 36.0481L81.8809 37.2374L80.6902 35.1774L82.7529 33.9881L83.9409 36.0481ZM86.0649 34.8241L84.0035 36.0134L82.8129 33.9521L84.8742 32.7628L86.0649 34.8241ZM88.1862 33.5974L86.1262 34.7868L84.9355 32.7268L86.9955 31.5361L88.1862 33.5974ZM90.3089 32.3734L88.2475 33.5628L87.0582 31.5014L89.1182 30.3121L90.3089 32.3734ZM92.4302 31.1481L90.3702 32.3374L89.1795 30.2761L91.2409 29.0868L92.4302 31.1481ZM96.6755 28.6974L94.6142 29.8868L93.4249 27.8254L95.4849 26.6361L96.6755 28.6974ZM98.7969 27.4721L96.7369 28.6614L95.5462 26.6015L97.6075 25.4094L98.7969 27.4721ZM100.92 26.2454L98.8582 27.4361L97.6689 25.3761L99.7302 24.1854L100.92 26.2454ZM103.042 25.0201L100.982 26.2108L99.7915 24.1508L101.852 22.9601L103.042 25.0201ZM105.164 23.7948L103.104 24.9854L101.913 22.9254L103.973 21.7348L105.164 23.7948ZM105.225 23.7614L104.037 21.7001L106.097 20.5094L107.288 22.5708L105.225 23.7614ZM106.45 25.8814L105.261 23.8214L107.322 22.6308L108.513 24.6934L106.45 25.8814ZM107.677 28.0041L106.486 25.9441L108.546 24.7548L109.738 26.8148L107.677 28.0041ZM107.712 28.0668L109.773 26.8761L110.962 28.9361L108.902 30.1281L107.712 28.0668ZM105.59 29.2908L107.65 28.1014L108.841 30.1614L106.78 31.3521L105.59 29.2908ZM103.468 30.5174L105.528 29.3268L106.718 31.3881L104.657 32.5774L103.468 30.5174ZM101.345 31.7414L103.406 30.5521L104.596 32.6121L102.536 33.8028L101.345 31.7414ZM99.2222 32.9681L101.284 31.7774L102.474 33.8374L100.413 35.0281L99.2222 32.9681ZM97.1009 34.1921L99.1609 33.0014L100.35 35.0628L98.2902 36.2534L97.1009 34.1921ZM92.8555 36.6428L94.9169 35.4534L96.1075 37.5148L94.0462 38.7041L92.8555 36.6428ZM90.7342 37.8681L92.7955 36.6774L93.9849 38.7401L91.9235 39.9294L90.7342 37.8681ZM88.6129 39.0934L90.6729 37.9041L91.8622 39.9641L89.8009 41.1548L88.6129 39.0934ZM86.4889 40.3188L88.5489 39.1294L89.7395 41.1894L87.6795 42.3788L86.4889 40.3188ZM86.4289 40.3548L87.6182 42.4148L85.5582 43.6041L84.3675 41.5441L86.4289 40.3548ZM85.2022 38.2321L86.3929 40.2934L84.3315 41.4828L83.1422 39.4214L85.2022 38.2321ZM85.1675 38.1708L83.1062 39.3601L81.9169 37.3001L83.9782 36.1094L85.1675 38.1708ZM87.2902 36.9441L85.2275 38.1348L84.0395 36.0734L86.0995 34.8841L87.2902 36.9441ZM89.4115 35.7201L87.3515 36.9108L86.1609 34.8494L88.2209 33.6588L89.4115 35.7201ZM91.5342 34.4948L89.4729 35.6854L88.2835 33.6241L90.3449 32.4348L91.5342 34.4948ZM93.6569 33.2694L91.5955 34.4601L90.4062 32.3988L92.4662 31.2094L93.6569 33.2694ZM95.7782 32.0441L94.6409 32.7014L93.7182 33.2334L92.5275 31.1734L93.4502 30.6401L94.5875 29.9841L95.7782 32.0441ZM97.9009 30.8188L95.8395 32.0081L94.6502 29.9481L96.7102 28.7588L97.9009 30.8188ZM100.022 29.5948L97.9622 30.7841L96.7715 28.7228L98.8329 27.5334L100.022 29.5948ZM102.146 28.3681L100.084 29.5574L98.8942 27.4974L100.956 26.3081L102.146 28.3681ZM104.268 27.1441L102.206 28.3321L101.017 26.2721L103.077 25.0814L104.268 27.1441ZM104.329 27.1081L103.14 25.0468L105.2 23.8561L106.389 25.9188L104.329 27.1081ZM104.365 27.1681L106.425 25.9801L107.616 28.0401L105.553 29.2308L104.365 27.1681ZM102.241 28.3948L104.304 27.2054L105.493 29.2654L103.433 30.4548L102.241 28.3948ZM100.12 29.6201L102.181 28.4308L103.37 30.4908L101.31 31.6814L100.12 29.6201ZM97.9982 30.8441L100.058 29.6548L101.249 31.7148L99.1862 32.9068L97.9982 30.8441ZM95.8755 32.0694L97.9355 30.8801L99.1262 32.9414L97.0649 34.1308L95.8755 32.0694ZM91.6302 34.5214L93.6915 33.3308L94.8809 35.3908L92.8209 36.5814L91.6302 34.5214ZM89.5089 35.7468L91.5702 34.5561L92.7595 36.6174L90.6982 37.8068L89.5089 35.7468ZM88.5155 39.0668L86.4542 40.2574L85.2649 38.1974L87.3249 37.0068L88.5155 39.0668ZM87.3862 36.9708L89.4475 35.7814L90.6369 37.8414L88.5755 39.0321L87.3862 36.9708ZM95.8662 34.8241L94.9435 35.3561L93.7529 33.2961L94.6755 32.7628L95.8142 32.1054L97.0035 34.1654L95.8662 34.8241ZM97.0915 36.9454L96.1675 37.4788L94.9782 35.4174L95.9009 34.8841L97.0395 34.2281L98.2289 36.2894L97.0915 36.9454ZM92.2249 28.5188L93.3635 27.8601L94.5542 29.9228L93.4142 30.5788L92.4915 31.1108L91.3022 29.0508L92.2249 28.5188ZM98.3169 39.0681L97.3942 39.6001L96.2049 37.5401L97.1262 37.0081L98.2649 36.3508L99.4542 38.4108L98.3169 39.0681ZM114.31 29.8334L112.249 31.0241L111.06 28.9628L113.121 27.7721L114.31 29.8334ZM116.556 31.4494L116.52 31.3881L115.598 31.9201L114.406 29.8601L115.33 29.3268L115.294 29.2654L114.373 29.7988L113.182 27.7388L114.105 27.2054L114.069 27.1441L113.146 27.6774L111.957 25.6148L112.88 25.0828L112.844 25.0214L111.921 25.5534L110.732 23.4934L111.654 22.9601L111.618 22.8988L110.696 23.4321L109.505 21.3721L110.429 20.8374L110.393 20.7761L109.47 21.3108L108.28 19.2494L109.204 18.7161L109.169 18.6548L108.245 19.1881L107.054 17.1268L107.978 16.5934L107.942 16.5321L107.018 17.0654L106.3 15.8201L106.238 15.8548L106.958 17.1015L104.897 18.2908L104.178 17.0454L104.117 17.0801L104.836 18.3268L102.774 19.5161L102.056 18.2694L101.994 18.3054L102.713 19.5508L100.653 20.7414L99.9329 19.4948L99.8715 19.5308L100.592 20.7761L98.5302 21.9668L97.8115 20.7201L97.7489 20.7561L98.4689 22.0028L96.4075 23.1921L95.6889 21.9454L95.6275 21.9814L96.3462 23.2268L94.2849 24.4174L93.5662 23.1708L93.5049 23.2081L94.2235 24.4521L92.1635 25.6428L91.4435 24.3961L91.3822 24.4308L92.1009 25.6774L90.9635 26.3348L90.0409 26.8681L89.3222 25.6214L89.2609 25.6574L89.9795 26.9028L87.9195 28.0934L87.1995 26.8468L87.1382 26.8828L87.8582 28.1281L85.7969 29.3188L85.0769 28.0721L85.0155 28.1081L85.7369 29.3521L83.6742 30.5441L82.9555 29.2961L82.8942 29.3334L83.6129 30.5788L81.5515 31.7694L80.8329 30.5228L80.7715 30.5574L81.4915 31.8041L79.4315 32.9934L78.7102 31.7468L78.6489 31.7841L79.3689 33.0294L77.3075 34.2188L76.5889 32.9721L76.5275 33.0094L77.2462 34.2548L75.1862 35.4441L74.4662 34.1988L74.4062 34.2334L75.1249 35.4801L74.1409 36.0468L74.1769 36.1081L75.1595 35.5414L76.3502 37.6028L75.3662 38.1708L75.4009 38.2321L76.3862 37.6628L77.5755 39.7241L76.5915 40.2934L76.6262 40.3534L77.6102 39.7854L78.8009 41.8468L77.8169 42.4134L77.8515 42.4761L78.8355 41.9081L80.0262 43.9681L79.0422 44.5374L79.0782 44.5988L80.0609 44.0308L81.2515 46.0908L80.2675 46.6588L80.3035 46.7201L81.2875 46.1521L82.4769 48.2134L81.4929 48.7814L81.5275 48.8428L82.5129 48.2748L83.7022 50.3361L82.7169 50.9041L82.7529 50.9654L83.7382 50.3974L84.4822 51.6868L84.5435 51.6521L83.7995 50.3614L85.8595 49.1721L86.6035 50.4614L86.6662 50.4268L85.9209 49.1361L87.9835 47.9468L88.7275 49.2361L88.7889 49.2001L88.0449 47.9108L90.1049 46.7214L90.8489 48.0108L90.9102 47.9748L90.1662 46.6854L92.2262 45.4961L92.9715 46.7854L93.0329 46.7494L92.2889 45.4601L94.3502 44.2694L95.0942 45.5601L95.1555 45.5241L94.4089 44.2361L96.4715 43.0454L97.2155 44.3348L97.2769 44.3001L96.5329 43.0094L98.5942 41.8201L99.3382 43.1108L99.3995 43.0748L98.6542 41.7841L99.5782 41.2508L100.716 40.5948L101.461 41.8841L101.522 41.8494L100.777 40.5601L102.837 39.3694L103.582 40.6588L103.645 40.6241L102.898 39.3334L104.961 38.1441L105.705 39.4334L105.766 39.3974L105.021 38.1094L107.082 36.9188L107.826 38.2081L107.888 38.1734L107.144 36.8841L109.205 35.6934L109.95 36.9841L110.012 36.9468L109.268 35.6574L111.328 34.4681L112.072 35.7574L112.133 35.7228L111.388 34.4334L113.449 33.2428L114.193 34.5334L114.254 34.4974L113.51 33.2068L115.572 32.0188L116.316 33.3081L116.377 33.2721L115.632 31.9828L116.556 31.4494Z" fill="#214265"/>
<path d="M82.4903 54.0173L71.3916 34.7933L72.0569 34.4093L83.1569 53.6333L82.4903 54.0173Z" fill="#E9EAE9"/>
<path d="M20.3409 81.0801L8.9436 74.5014L26.5796 64.3188C26.7529 63.5361 27.3516 62.7801 28.3929 62.1787C29.4329 61.5774 30.7436 61.2308 32.0983 61.1321L44.8169 53.7894L56.2143 60.3694L20.3409 81.0801Z" fill="#B0B0AE"/>
<path d="M38.3928 63.996H27.4302V64.6427C27.4302 65.4507 27.9635 66.2627 29.0355 66.88C31.1755 68.116 34.6475 68.116 36.7888 66.88C37.8582 66.2613 38.3928 65.4507 38.3928 64.6427V63.996Z" fill="#8F9295"/>
<path d="M36.789 66.2346C34.6477 67.4706 31.1757 67.4706 29.0357 66.2346C26.8944 64.9986 26.8944 62.9933 29.0357 61.7599C31.1757 60.5226 34.6477 60.5226 36.789 61.7599C38.929 62.9933 38.929 64.9986 36.789 66.2346Z" fill="#E9EAE9"/>
<path d="M36.7355 62.5814H29.0889V63.6854C29.0889 64.2494 29.4622 64.8147 30.2089 65.2454C31.7022 66.1067 34.1222 66.1067 35.6142 65.2454C36.3609 64.8147 36.7355 64.2494 36.7355 63.6854V62.5814Z" fill="#8F9295"/>
<path d="M35.6142 64.1413C34.1222 65.004 31.7022 65.004 30.2089 64.1413C28.7155 63.28 28.7155 61.8813 30.2089 61.02C31.7022 60.1573 34.1222 60.1573 35.6142 61.02C37.1075 61.8813 37.1075 63.2787 35.6142 64.1413Z" fill="#E9EAE9"/>
<path d="M35.1729 58.8H30.6516V62.3947C30.6516 62.728 30.8716 63.0626 31.313 63.316C32.1956 63.8266 33.6276 63.8266 34.5103 63.316C34.9516 63.0626 35.1729 62.728 35.1729 62.3947V58.8Z" fill="#BBBCBD"/>
<path d="M34.5102 59.7227C33.6275 60.2321 32.1955 60.2321 31.3129 59.7227C30.4302 59.2134 30.4302 58.3867 31.3129 57.8787C32.1955 57.3681 33.6275 57.3681 34.5102 57.8787C35.3915 58.3867 35.3915 59.2134 34.5102 59.7227Z" fill="#E9EAE9"/>
<path d="M33.8811 41.8814H31.9424V58.7054C31.9424 58.8494 32.0371 58.9907 32.2264 59.1014C32.6051 59.32 33.2184 59.32 33.5984 59.1014C33.7864 58.9907 33.8811 58.8494 33.8811 58.7054V41.8814Z" fill="#8F9295"/>
<path d="M33.5984 42.2759C33.2184 42.4946 32.605 42.4946 32.2264 42.2759C31.8477 42.0586 31.8477 41.7026 32.2264 41.4853C32.605 41.268 33.2184 41.268 33.5984 41.4853C33.9757 41.7026 33.9757 42.0586 33.5984 42.2759Z" fill="#7A7E82"/>
<path d="M20.7076 62.2227L17.8835 58.0893L11.6942 47.2613L9.60889 42.9973L45.1155 22.5013L56.2142 41.724L20.7076 62.2227Z" fill="#BBBCBD"/>
<path d="M21.0502 60.8453L10.9729 43.3907L44.7729 23.8787L54.8502 41.3307L21.0502 60.8453Z" fill="#325988"/>
<path d="M51.0263 41.736L49.837 39.6747L51.897 38.4854L53.0876 40.5453L51.0263 41.736ZM48.905 42.9614L47.7143 40.9014L49.7757 39.7107L50.965 41.7707L48.905 42.9614ZM46.7823 44.1867L45.5917 42.1254L47.653 40.936L48.8437 42.996L46.7823 44.1867ZM44.6597 45.4107L43.4703 43.3507L45.5303 42.16L46.721 44.2214L44.6597 45.4107ZM42.537 46.6373L41.3477 44.576L43.409 43.3854L44.5983 45.4467L42.537 46.6373ZM40.4156 47.8614L39.225 45.8014L41.2863 44.6107L42.477 46.672L40.4156 47.8614ZM38.293 49.0867L37.1023 47.0267L39.1637 45.836L40.3543 47.8974L38.293 49.0867ZM37.0943 49.78L36.1703 50.3133L34.9823 48.252L35.9036 47.7187L37.0423 47.0614L38.2316 49.124L37.0943 49.78ZM34.049 51.5373L32.8583 49.4773L34.9196 48.288L36.109 50.348L34.049 51.5373ZM31.9277 52.7627L30.737 50.7027L32.797 49.5133L33.9876 51.5733L31.9277 52.7627ZM29.805 53.9894L28.6143 51.9267L30.6757 50.7387L31.865 52.7987L29.805 53.9894ZM27.6823 55.2133L26.4917 53.1534L28.553 51.9627L29.7423 54.024L27.6823 55.2133ZM25.5597 56.44L24.3703 54.3787L26.4303 53.188L27.621 55.2493L25.5597 56.44ZM23.437 57.664L22.2477 55.6027L24.309 54.4133L25.4983 56.4747L23.437 57.664ZM21.3156 58.8894L20.125 56.8294L22.1863 55.6387L23.3757 57.7L21.3156 58.8894ZM18.8996 54.7067L20.961 53.5174L22.1516 55.5773L20.0903 56.7667L18.8996 54.7067ZM17.6743 52.584L19.7356 51.3947L20.925 53.456L18.865 54.6453L17.6743 52.584ZM16.449 50.4627L18.5103 49.272L19.701 51.332L17.6396 52.5227L16.449 50.4627ZM15.2236 48.34L17.285 47.1507L18.4743 49.2107L16.413 50.4L15.2236 48.34ZM13.9983 46.2174L16.0597 45.028L17.249 47.088L15.1876 48.2773L13.9983 46.2174ZM12.773 44.096L14.833 42.9067L16.0236 44.9667L13.9623 46.1574L12.773 44.096ZM16.9556 41.68L18.1463 43.7413L16.085 44.9307L14.8957 42.8707L16.9556 41.68ZM19.0783 40.4547L20.269 42.5174L18.209 43.7067L17.017 41.6453L19.0783 40.4547ZM21.1996 39.2294L22.3903 41.2907L20.329 42.4813L19.1396 40.42L21.1996 39.2294ZM23.3236 38.004L24.513 40.0654L22.4516 41.2547L21.261 39.1934L23.3236 38.004ZM25.445 36.7787L26.6356 38.84L24.573 40.0294L23.3836 37.9693L25.445 36.7787ZM27.5676 35.5534L28.757 37.6147L26.697 38.8053L25.5063 36.744L27.5676 35.5534ZM28.5516 34.9867L29.689 34.3294L30.8783 36.3894L29.741 37.0467L28.8183 37.58L27.6277 35.5187L28.5516 34.9867ZM31.8117 33.104L33.001 35.164L30.941 36.3534L29.7516 34.2947L31.8117 33.104ZM33.9343 31.8787L35.1237 33.9387L33.0637 35.1294L31.873 33.068L33.9343 31.8787ZM36.057 30.6534L37.2463 32.7133L35.185 33.904L33.9943 31.8427L36.057 30.6534ZM38.1783 29.428L39.369 31.488L37.3063 32.6787L36.1183 30.6174L38.1783 29.428ZM40.301 28.2027L41.4903 30.264L39.4303 31.4534L38.2396 29.392L40.301 28.2027ZM42.4223 26.976L43.613 29.0387L41.5516 30.228L40.361 28.1667L42.4223 26.976ZM44.545 25.7507L45.7343 27.8133L43.6743 29.0027L42.4836 26.9413L44.545 25.7507ZM46.9597 29.936L44.8996 31.124L43.7103 29.064L45.7703 27.8747L46.9597 29.936ZM48.1863 32.056L46.1263 33.2453L44.9343 31.1854L46.9957 29.996L48.1863 32.056ZM49.4117 34.1787L47.3503 35.3693L46.161 33.308L48.221 32.1187L49.4117 34.1787ZM50.6356 36.3014L48.5757 37.4907L47.385 35.4307L49.4463 34.24L50.6356 36.3014ZM46.489 38.7773L48.549 37.588L49.7397 39.6494L47.6797 40.8387L46.489 38.7773ZM44.3676 40.0027L46.4277 38.8133L47.6183 40.8747L45.557 42.064L44.3676 40.0027ZM42.2437 41.228L44.305 40.0387L45.4957 42.1L43.4343 43.2907L42.2437 41.228ZM40.1223 42.4534L42.1836 41.264L43.373 43.324L41.313 44.5147L40.1223 42.4534ZM37.9996 43.68L40.061 42.4894L41.2503 44.5493L39.189 45.74L37.9996 43.68ZM35.8783 44.904L37.9383 43.7133L39.129 45.7747L37.0676 46.9654L35.8783 44.904ZM31.633 47.3547L33.6943 46.1654L34.8836 48.2254L32.8237 49.416L31.633 47.3547ZM29.5117 48.58L31.5716 47.3894L32.7623 49.452L30.7023 50.64L29.5117 48.58ZM27.389 49.8053L29.4503 48.6147L30.641 50.6773L28.5783 51.8667L27.389 49.8053ZM25.2663 51.0307L27.3277 49.84L28.517 51.9014L26.457 53.092L25.2663 51.0307ZM23.145 52.256L25.205 51.0654L26.3957 53.128L24.3356 54.316L23.145 52.256ZM23.0836 52.292L24.273 54.352L22.2117 55.5427L21.021 53.4813L23.0836 52.292ZM21.8583 50.168L23.0477 52.2294L20.9876 53.42L19.7957 51.3587L21.8583 50.168ZM20.633 48.0467L21.8223 50.108L19.7623 51.2974L18.5716 49.236L20.633 48.0467ZM19.4063 45.9254L20.597 47.9854L18.5356 49.1747L17.3463 47.1147L19.4063 45.9254ZM19.3716 45.8627L17.3103 47.0547L16.121 44.992L18.1823 43.8014L19.3716 45.8627ZM21.493 44.6373L19.433 45.828L18.2423 43.768L20.3036 42.5773L21.493 44.6373ZM23.6156 43.412L21.5556 44.6027L20.365 42.5413L22.4263 41.352L23.6156 43.412ZM25.7383 42.1867L23.677 43.3773L22.4876 41.3174L24.5477 40.1267L25.7383 42.1867ZM27.861 40.9614L25.7996 42.152L24.609 40.092L26.6703 38.9027L27.861 40.9614ZM29.9823 39.7373L27.921 40.9267L26.7316 38.8654L28.793 37.676L29.9823 39.7373ZM34.2277 37.2867L32.165 38.476L30.9757 36.4147L33.037 35.2254L34.2277 37.2867ZM36.349 36.0614L34.289 37.252L33.0983 35.1907L35.1583 34L36.349 36.0614ZM38.4703 34.836L36.4103 36.0254L35.221 33.964L37.281 32.7747L38.4703 34.836ZM40.5943 33.6107L38.533 34.8L37.3437 32.74L39.4036 31.5494L40.5943 33.6107ZM42.7156 32.3854L40.6556 33.5747L39.465 31.5147L41.5263 30.324L42.7156 32.3854ZM42.777 32.3494L41.5863 30.2894L43.649 29.1L44.8383 31.16L42.777 32.3494ZM44.0023 34.472L42.813 32.4107L44.8743 31.2214L46.0637 33.2827L44.0023 34.472ZM45.229 36.5947L44.0383 34.5334L46.0996 33.3427L47.289 35.404L45.229 36.5947ZM45.2637 36.656L47.3237 35.4654L48.5156 37.5267L46.4543 38.716L45.2637 36.656ZM43.141 37.88L45.2023 36.6907L46.393 38.752L44.3316 39.9413L43.141 37.88ZM41.0183 39.1053L43.081 37.916L44.269 39.9773L42.209 41.1667L41.0183 39.1053ZM38.897 40.3307L40.957 39.1427L42.1477 41.2027L40.0876 42.392L38.897 40.3307ZM36.7743 41.556L38.8356 40.3667L40.0263 42.428L37.9637 43.6174L36.7743 41.556ZM34.6516 42.7813L36.7117 41.592L37.9036 43.6534L35.8423 44.844L34.6516 42.7813ZM30.4077 45.232L32.469 44.0427L33.6583 46.1027L31.5983 47.2934L30.4077 45.232ZM28.2863 46.4587L30.3477 45.268L31.537 47.328L29.4757 48.5187L28.2863 46.4587ZM26.1623 47.684L28.225 46.492L29.4143 48.5534L27.353 49.744L26.1623 47.684ZM24.0423 48.908L26.1023 47.7187L27.293 49.7787L25.2316 50.9693L24.0423 48.908ZM23.9797 48.944L25.169 51.004L23.109 52.1947L21.9196 50.1334L23.9797 48.944ZM22.7556 46.8214L23.9437 48.8813L21.8836 50.0733L20.6943 48.0107L22.7556 46.8214ZM22.7183 46.7614L20.6583 47.9493L19.4676 45.8894L21.529 44.6987L22.7183 46.7614ZM24.8423 45.5347L22.7797 46.724L21.5903 44.664L23.6516 43.4733L24.8423 45.5347ZM26.9637 44.3093L24.9036 45.4987L23.713 43.4387L25.773 42.248L26.9637 44.3093ZM29.085 43.0854L27.025 44.2733L25.8343 42.2133L27.8957 41.0227L29.085 43.0854ZM31.2077 41.8587L29.1477 43.048L27.9583 40.988L30.0183 39.7974L31.2077 41.8587ZM33.3303 40.6334L32.1917 41.292L31.269 41.824L30.0797 39.764L31.0023 39.2294L32.141 38.5733L33.3303 40.6334ZM35.453 39.408L33.3917 40.5987L32.201 38.5373L34.2623 37.3494L35.453 39.408ZM37.5743 38.1827L35.5143 39.3733L34.3237 37.312L36.385 36.1227L37.5743 38.1827ZM39.6957 36.9587L37.6356 38.148L36.4463 36.0867L38.5077 34.8974L39.6957 36.9587ZM41.8196 35.732L39.7583 36.9227L38.569 34.8614L40.629 33.672L41.8196 35.732ZM41.881 35.6974L40.6903 33.636L42.7516 32.4467L43.941 34.508L41.881 35.6974ZM41.917 35.7587L43.977 34.5693L45.1663 36.6294L43.1063 37.82L41.917 35.7587ZM39.7943 36.984L41.8543 35.7947L43.045 37.8547L40.9836 39.0453L39.7943 36.984ZM37.6716 38.2093L39.733 37.0187L40.9223 39.0787L38.8623 40.2693L37.6716 38.2093ZM35.5477 39.4347L37.6103 38.244L38.801 40.3053L36.7396 41.4947L35.5477 39.4347ZM33.4277 40.6587L35.4876 39.4693L36.6783 41.5307L34.617 42.72L33.4277 40.6587ZM29.1836 43.1107L31.2437 41.9214L32.4343 43.9813L30.373 45.1707L29.1836 43.1107ZM27.0597 44.3347L29.1223 43.1453L30.3103 45.2067L28.2503 46.396L27.0597 44.3347ZM26.0676 47.6574L24.005 48.848L22.8156 46.7854L24.877 45.596L26.0676 47.6574ZM24.9383 45.56L26.9983 44.372L28.189 46.432L26.129 47.6227L24.9383 45.56ZM33.417 43.4133L32.4943 43.9453L31.305 41.884L32.2277 41.352L33.365 40.6947L34.5556 42.756L33.417 43.4133ZM34.6437 45.5347L33.721 46.0693L32.5303 44.0067L33.453 43.4747L34.5903 42.8187L35.781 44.8787L34.6437 45.5347ZM29.7783 37.1067L30.9156 36.4507L32.1036 38.512L30.9663 39.168L30.0437 39.7014L28.8543 37.6413L29.7783 37.1067ZM35.869 47.6574L34.945 48.1907L33.7556 46.1294L34.6783 45.596L35.817 44.9387L37.0063 47L35.869 47.6574ZM51.8623 38.424L49.801 39.6133L48.6103 37.552L50.673 36.3627L51.8623 38.424ZM54.1063 40.0387L54.0716 39.9773L53.149 40.5107L51.9597 38.4494L52.8823 37.916L52.8463 37.856L51.9223 38.388L50.7343 36.3267L51.657 35.796L51.621 35.7334L50.6983 36.2667L49.5077 34.2053L50.4316 33.672L50.3957 33.6107L49.473 34.144L48.2823 32.0813L49.205 31.5494L49.1703 31.4894L48.2463 32.0214L47.057 29.9614L47.9797 29.428L47.945 29.3667L47.0223 29.8987L45.8316 27.8387L46.7556 27.3067L46.7196 27.244L45.7957 27.7773L44.6063 25.716L45.5303 25.1827L45.4943 25.1227L44.5716 25.656L43.8516 24.408L43.7903 24.4453L44.509 25.6894L42.449 26.88L41.729 25.6347L41.6676 25.6693L42.3876 26.916L40.3263 28.1053L39.6063 26.8587L39.545 26.8947L40.2663 28.14L38.2036 29.3307L37.485 28.084L37.4237 28.1214L38.1423 29.3667L36.0823 30.556L35.3623 29.3093L35.301 29.3453L36.021 30.592L33.9597 31.7813L33.2396 30.5347L33.1783 30.5707L33.8996 31.8174L31.837 33.0067L31.1183 31.76L31.057 31.796L31.7757 33.0427L29.7143 34.232L28.9957 32.9854L28.9343 33.0214L29.6543 34.268L28.517 34.924L27.5943 35.4574L26.8743 34.212L26.8117 34.2467L27.5316 35.4934L25.4703 36.684L24.7516 35.436L24.689 35.4707L25.409 36.7174L23.349 37.908L22.629 36.6614L22.5676 36.6974L23.2876 37.9427L21.2263 39.1334L20.5077 37.8867L20.4463 37.9214L21.165 39.168L19.105 40.3587L18.3836 39.112L18.3236 39.1467L19.0437 40.3934L16.981 41.584L16.2623 40.3373L16.201 40.3733L16.921 41.6187L14.8597 42.8093L14.141 41.5627L14.0783 41.5974L14.7983 42.844L12.7383 44.0347L12.017 42.788L11.957 42.824L12.677 44.0693L11.6917 44.6373L11.7277 44.6987L12.7117 44.1307L13.9023 46.192L12.9183 46.76L12.953 46.82L13.937 46.252L15.1277 48.3147L14.1437 48.8813L14.1783 48.944L15.1623 48.3747L16.3516 50.436L15.369 51.004L15.4036 51.0654L16.3876 50.4974L17.577 52.5574L16.5943 53.1267L16.629 53.1867L17.613 52.6187L18.8036 54.6813L17.8196 55.2493L17.8543 55.3107L18.8383 54.7413L20.029 56.8027L19.045 57.3707L19.0797 57.4334L20.0637 56.864L21.2543 58.9254L20.269 59.4934L20.3036 59.5534L21.2903 58.9867L22.0343 60.2773L22.0957 60.2413L21.3503 58.9507L23.4117 57.76L24.157 59.0507L24.217 59.016L23.473 57.7267L25.533 56.536L26.2783 57.824L26.3396 57.7894L25.5957 56.5L27.6556 55.3107L28.401 56.6L28.4623 56.5654L27.717 55.2747L29.7783 54.0854L30.5237 55.3747L30.585 55.3387L29.8396 54.0507L31.901 52.86L32.645 54.1493L32.7063 54.1147L31.9623 52.824L34.0223 51.6347L34.7676 52.924L34.829 52.8894L34.0836 51.5987L36.145 50.4093L36.8903 51.6987L36.9516 51.664L36.2063 50.3733L37.129 49.8413L38.2676 49.184L39.0117 50.4747L39.073 50.4387L38.329 49.148L40.389 47.9587L41.1343 49.248L41.1943 49.2133L40.4503 47.924L42.5117 46.7347L43.257 48.024L43.3183 47.988L42.573 46.6974L44.6343 45.5093L45.3783 46.7987L45.4397 46.7627L44.6957 45.4733L46.7556 44.2827L47.501 45.572L47.5623 45.5373L46.817 44.248L48.8783 43.0574L49.6237 44.3467L49.685 44.312L48.9397 43.0214L51.001 41.832L51.745 43.1227L51.8077 43.0867L51.0623 41.7974L53.1237 40.6067L53.8676 41.8974L53.929 41.8614L53.1836 40.572L54.1063 40.0387Z" fill="#214265"/>
<path d="M20.0423 62.6067L8.9436 43.384L9.60894 42.9974L20.7076 62.2227L20.0423 62.6067Z" fill="#E9EAE9"/>
<path d="M44.1263 94.8134L32.729 88.2334L50.365 78.052C50.5383 77.268 51.1383 76.5134 52.1783 75.9107C53.2183 75.3107 54.529 74.9654 55.885 74.864L68.6023 67.5214L79.9997 74.1027L44.1263 94.8134Z" fill="#B0B0AE"/>
<path d="M62.1783 77.7294H51.2156V78.3734C51.2156 79.184 51.7502 79.9947 52.8209 80.612C54.9622 81.8494 58.4329 81.8494 60.5743 80.612C61.6436 79.9934 62.1783 79.184 62.1783 78.3734V77.7294Z" fill="#8F9295"/>
<path d="M60.5742 79.968C58.4328 81.204 54.9622 81.204 52.8208 79.968C50.6795 78.732 50.6795 76.7267 52.8208 75.492C54.9622 74.256 58.4328 74.256 60.5742 75.492C62.7142 76.7267 62.7142 78.7307 60.5742 79.968Z" fill="#E9EAE9"/>
<path d="M60.5196 76.3147H52.8743V77.4174C52.8743 77.9814 53.2476 78.5467 53.9943 78.9774C55.4876 79.8401 57.9076 79.8401 59.3996 78.9774C60.1476 78.5467 60.5196 77.9814 60.5196 77.4174V76.3147Z" fill="#8F9295"/>
<path d="M59.3996 77.8748C57.9076 78.7361 55.4876 78.7361 53.9943 77.8748C52.5009 77.0121 52.5009 75.6148 53.9943 74.7534C55.4876 73.8908 57.9076 73.8908 59.3996 74.7534C60.8929 75.6148 60.8929 77.0121 59.3996 77.8748Z" fill="#E9EAE9"/>
<path d="M58.9583 72.5334H54.437V76.1281C54.437 76.4601 54.657 76.7947 55.0997 77.0494C55.981 77.5587 57.413 77.5587 58.2957 77.0494C58.7384 76.7947 58.9583 76.4601 58.9583 76.1281V72.5334Z" fill="#BBBCBD"/>
<path d="M58.2955 73.456C57.4129 73.964 55.9809 73.964 55.0995 73.456C54.2155 72.9454 54.2155 72.12 55.0995 71.6107C55.9809 71.1014 57.4129 71.1014 58.2955 71.6107C59.1782 72.12 59.1782 72.9454 58.2955 73.456Z" fill="#E9EAE9"/>
<path d="M57.6663 55.6133H55.729V72.4373C55.729 72.5813 55.8237 72.724 56.0117 72.8333C56.3903 73.0507 57.005 73.0507 57.3823 72.8333C57.573 72.724 57.6663 72.5813 57.6663 72.4373V55.6133Z" fill="#8F9295"/>
<path d="M57.3822 56.0093C57.0049 56.228 56.3902 56.228 56.0115 56.0093C55.6329 55.7907 55.6329 55.436 56.0115 55.2173C56.3902 54.9987 57.0049 54.9987 57.3822 55.2173C57.7622 55.436 57.7622 55.7907 57.3822 56.0093Z" fill="#7A7E82"/>
<path d="M44.493 75.9547L41.6689 71.8214L35.4796 60.9934L33.3943 56.7307L68.9009 36.2334L79.9996 55.456L44.493 75.9547Z" fill="#BBBCBD"/>
<path d="M44.8356 74.5774L34.7583 57.1241L68.5596 37.6121L78.6356 55.0641L44.8356 74.5774Z" fill="#325988"/>
<path d="M74.8116 55.4681L73.6236 53.4081L75.6836 52.2161L76.8729 54.2787L74.8116 55.4681ZM72.6903 56.6921L71.4996 54.6321L73.5609 53.4427L74.7503 55.5027L72.6903 56.6921ZM70.5689 57.9174L69.3783 55.8574L71.4383 54.6681L72.6289 56.7294L70.5689 57.9174ZM68.4449 59.1441L67.2556 57.0827L69.3169 55.8934L70.5063 57.9547L68.4449 59.1441ZM66.3236 60.3694L65.1329 58.3081L67.1943 57.1187L68.3836 59.1787L66.3236 60.3694ZM64.2009 61.5947L63.0116 59.5348L65.0716 58.3441L66.2623 60.4054L64.2009 61.5947ZM62.0783 62.8201L60.8889 60.7587L62.9503 59.5694L64.1396 61.6307L62.0783 62.8201ZM60.8796 63.5121L59.9569 64.0454L58.7676 61.9854L59.6889 61.4507L60.8276 60.7947L62.0169 62.8547L60.8796 63.5121ZM57.8343 65.2707L56.6449 63.2107L58.7063 62.0187L59.8956 64.0801L57.8343 65.2707ZM55.7116 66.4947L54.5223 64.4347L56.5823 63.2441L57.7729 65.3054L55.7116 66.4947ZM53.5903 67.7214L52.4009 65.6601L54.4609 64.4694L55.6516 66.5307L53.5903 67.7214ZM51.4676 68.9454L50.2769 66.8854L52.3396 65.6947L53.5276 67.7561L51.4676 68.9454ZM49.3463 70.1707L48.1556 68.1107L50.2156 66.9201L51.4063 68.9814L49.3463 70.1707ZM47.2223 71.3961L46.0329 69.3361L48.0943 68.1454L49.2849 70.2081L47.2223 71.3961ZM45.1009 72.6214L43.9103 70.5614L45.9729 69.3721L47.1609 71.4321L45.1009 72.6214ZM42.6849 68.4387L44.7463 67.2494L45.9356 69.3107L43.8756 70.5001L42.6849 68.4387ZM41.4609 66.3174L43.5209 65.1267L44.7116 67.1881L42.6503 68.3774L41.4609 66.3174ZM40.2356 64.1947L42.2956 63.0054L43.4849 65.0654L41.4249 66.2561L40.2356 64.1947ZM39.0103 62.0721L41.0703 60.8827L42.2596 62.9427L40.1983 64.1321L39.0103 62.0721ZM37.7836 59.9507L39.8449 58.7601L41.0343 60.8227L38.9743 62.0107L37.7836 59.9507ZM36.5583 57.8281L38.6183 56.6374L39.8089 58.6987L37.7489 59.8894L36.5583 57.8281ZM40.7423 55.4134L41.9329 57.4734L39.8716 58.6641L38.6809 56.6027L40.7423 55.4134ZM42.8636 54.1881L44.0543 56.2481L41.9929 57.4387L40.8036 55.3774L42.8636 54.1881ZM44.9863 52.9627L46.1769 55.0227L44.1156 56.2134L42.9249 54.1521L44.9863 52.9627ZM47.1089 51.7374L48.2983 53.7974L46.2369 54.9894L45.0463 52.9267L47.1089 51.7374ZM49.2316 50.5121L50.4209 52.5734L48.3596 53.7627L47.1703 51.7014L49.2316 50.5121ZM51.3516 49.2867L52.5436 51.3481L50.4823 52.5374L49.2916 50.4761L51.3516 49.2867ZM52.3369 48.7174L53.4743 48.0614L54.6649 50.1227L53.5276 50.7774V50.7787L52.6036 51.3121L51.4143 49.2507L52.3369 48.7174ZM55.5969 46.8348L56.7863 48.8974L54.7263 50.0867L53.5369 48.0254L55.5969 46.8348ZM57.7196 45.6107L58.9103 47.6721L56.8489 48.8614L55.6583 46.8001L57.7196 45.6107ZM59.8409 44.3841L61.0316 46.4467L58.9703 47.6361L57.7809 45.5747L59.8409 44.3841ZM61.9636 43.1601L63.1556 45.2201L61.0929 46.4107L59.9036 44.3507L61.9636 43.1601ZM64.0863 41.9348L65.2769 43.9947L63.2156 45.1854L62.0249 43.1254L64.0863 41.9348ZM66.2089 40.7094L67.3983 42.7694L65.3383 43.9601L64.1476 41.9001L66.2089 40.7094ZM68.3289 39.4841L69.5196 41.5454L67.4596 42.7361L66.2689 40.6747L68.3289 39.4841ZM70.7449 43.6681L68.6849 44.8574L67.4956 42.7961L69.5569 41.6054L70.7449 43.6681ZM71.9716 45.7907L69.9089 46.9801L68.7209 44.9187L70.7809 43.7294L71.9716 45.7907ZM73.1969 47.9107L71.1356 49.1027L69.9463 47.0414L72.0063 45.8507L73.1969 47.9107ZM74.4223 50.0348L72.3623 51.2241L71.1716 49.1627L73.2316 47.9734L74.4223 50.0348ZM70.2743 52.5107L72.3356 51.3214L73.5249 53.3801L71.4649 54.5707L70.2743 52.5107ZM68.1529 53.7361L70.2129 52.5454L71.4036 54.6054L69.3423 55.7961L68.1529 53.7361ZM66.0303 54.9614L68.0916 53.7694L69.2809 55.8321L67.2196 57.0214L66.0303 54.9614ZM63.9076 56.1854L65.9676 54.9974L67.1583 57.0574L65.0983 58.2467L63.9076 56.1854ZM61.7863 57.4121L63.8463 56.2201L65.0369 58.2827L62.9756 59.4721L61.7863 57.4121ZM59.6636 58.6361L61.7249 57.4467L62.9129 59.5081L60.8529 60.6974L59.6636 58.6361ZM55.4183 61.0867L57.4796 59.8974L58.6703 61.9587L56.6089 63.1481L55.4183 61.0867ZM53.2969 62.3121L55.3583 61.1227L56.5476 63.1841L54.4876 64.3747L53.2969 62.3121ZM51.1756 63.5374L53.2356 62.3481L54.4249 64.4081L52.3649 65.5987L51.1756 63.5374ZM49.0516 64.7627L51.1143 63.5734L52.3036 65.6334L50.2423 66.8241L49.0516 64.7627ZM46.9303 65.9881L48.9903 64.7987L50.1809 66.8587L48.1209 68.0494L46.9303 65.9881ZM46.8689 66.0227L48.0583 68.0841L45.9983 69.2747L44.8076 67.2134L46.8689 66.0227ZM45.6423 63.9014L46.8329 65.9627L44.7716 67.1534L43.5823 65.0921L45.6423 63.9014ZM44.4183 61.7801L45.6076 63.8401L43.5463 65.0307L42.3569 62.9681L44.4183 61.7801ZM43.1916 59.6574L44.3823 61.7187L42.3209 62.9081L41.1316 60.8467L43.1916 59.6574ZM43.1569 59.5961L41.0956 60.7854L39.9049 58.7254L41.9663 57.5348L43.1569 59.5961ZM45.2796 58.3707L43.2183 59.5601L42.0289 57.5001L44.0889 56.3094L45.2796 58.3707ZM47.4009 57.1454L45.3409 58.3361L44.1503 56.2747L46.2116 55.0841L47.4009 57.1454ZM49.5249 55.9201L47.4623 57.1094L46.2729 55.0494L48.3343 53.8587L49.5249 55.9201ZM51.6463 54.6947L49.5849 55.8854L48.3956 53.8241L50.4556 52.6334L51.6463 54.6947ZM53.7676 53.4694L51.7076 54.6601L50.5169 52.6001L52.5783 51.4081L53.7676 53.4694ZM58.0129 51.0187L55.9516 52.2094L54.7623 50.1481L56.8236 48.9587L58.0129 51.0187ZM60.1343 49.7934L58.0729 50.9841L56.8836 48.9227L58.9436 47.7334L60.1343 49.7934ZM62.2569 48.5694L60.1969 49.7587L59.0063 47.6974L61.0676 46.5081L62.2569 48.5694ZM64.3796 47.3441L62.3183 48.5321L61.1289 46.4721L63.1889 45.2827L64.3796 47.3441ZM66.5023 46.1174L64.4409 47.3067L63.2503 45.2467L65.3116 44.0561L66.5023 46.1174ZM66.5623 46.0827L65.3729 44.0214L67.4329 42.8307L68.6236 44.8934L66.5623 46.0827ZM67.7889 48.2054L66.5983 46.1427L68.6596 44.9547L69.8489 47.0147L67.7889 48.2054ZM69.0129 50.3267L67.8236 48.2667L69.8849 47.0761L71.0743 49.1374L69.0129 50.3267ZM69.0489 50.3881L71.1103 49.1974L72.2996 51.2601L70.2396 52.4494L69.0489 50.3881ZM66.9276 51.6134L68.9889 50.4227L70.1783 52.4841L68.1169 53.6747L66.9276 51.6134ZM64.8036 52.8387L66.8663 51.6494L68.0556 53.7094L65.9943 54.9001L64.8036 52.8387ZM62.6836 54.0641L64.7436 52.8747L65.9343 54.9361L63.8729 56.1254L62.6836 54.0641ZM60.5596 55.2894L62.6209 54.1001L63.8116 56.1601L61.7503 57.3507L60.5596 55.2894ZM58.4383 56.5147L60.4983 55.3241L61.6889 57.3854L59.6289 58.5761L58.4383 56.5147ZM54.1943 58.9654L56.2543 57.7761L57.4449 59.8361L55.3836 61.0254L54.1943 58.9654ZM52.0716 60.1907L54.1316 59.0001L55.3223 61.0614L53.2609 62.2507L52.0716 60.1907ZM49.9489 61.4147L52.0103 60.2267L53.1996 62.2867L51.1396 63.4761L49.9489 61.4147ZM47.8263 62.6414L49.8876 61.4507L51.0783 63.5121L49.0169 64.7014L47.8263 62.6414ZM47.7663 62.6761L48.9556 64.7374L46.8943 65.9267L45.7049 63.8667L47.7663 62.6761ZM46.5409 60.5534L47.7303 62.6147L45.6689 63.8054L44.4783 61.7427L46.5409 60.5534ZM46.5049 60.4934L44.4436 61.6827L43.2529 59.6214L45.3143 58.4334L46.5049 60.4934ZM48.6276 59.2681L46.5663 60.4574L45.3769 58.3961L47.4369 57.2067L48.6276 59.2681ZM50.7489 58.0427L48.6876 59.2321L47.4983 57.1721L49.5583 55.9814L50.7489 58.0427ZM52.8716 56.8174L50.8103 58.0067L49.6209 55.9467L51.6809 54.7561L52.8716 56.8174ZM54.9929 55.5934L52.9329 56.7814L51.7423 54.7201L53.8036 53.5307L54.9929 55.5934ZM57.1169 54.3667L55.9783 55.0227L55.0543 55.5561L53.8649 53.4961L54.7889 52.9627L55.9263 52.3054L57.1169 54.3667ZM59.2383 53.1401L57.1769 54.3307L55.9876 52.2707L58.0476 51.0801L59.2383 53.1401ZM61.3596 51.9161L59.2996 53.1054L58.1089 51.0454L60.1703 49.8547L61.3596 51.9161ZM63.4823 50.6907L61.4209 51.8801L60.2316 49.8201L62.2929 48.6294L63.4823 50.6907ZM65.6049 49.4654L63.5436 50.6561L62.3543 48.5947L64.4143 47.4054L65.6049 49.4654ZM65.6663 49.4307L64.4756 47.3694L66.5369 46.1801L67.7263 48.2401L65.6663 49.4307ZM65.7023 49.4907L67.7623 48.3014L68.9516 50.3627L66.8916 51.5521L65.7023 49.4907ZM63.5796 50.7161L65.6396 49.5267L66.8303 51.5867L64.7689 52.7774L63.5796 50.7161ZM61.4569 51.9427L63.5169 50.7521L64.7089 52.8134L62.6463 54.0027L61.4569 51.9427ZM59.3343 53.1667L61.3956 51.9774L62.5849 54.0387L60.5249 55.2281L59.3343 53.1667ZM57.2116 54.3921L59.2729 53.2027L60.4636 55.2641L58.4036 56.4534L57.2116 54.3921ZM52.9689 56.8427L55.0289 55.6534L56.2183 57.7134L54.1569 58.9041L52.9689 56.8427ZM50.8463 58.0681L52.9063 56.8801L54.0969 58.9401L52.0356 60.1294L50.8463 58.0681ZM49.8516 61.3894L47.7916 62.5801L46.6009 60.5187L48.6623 59.3294L49.8516 61.3894ZM48.7236 59.2934L50.7849 58.1041L51.9743 60.1641L49.9143 61.3547L48.7236 59.2934ZM57.2023 57.1454L56.2809 57.6787L55.0903 55.6174L56.0143 55.0841L57.1516 54.4281L58.3409 56.4894L57.2023 57.1454ZM58.4289 59.2681L57.5063 59.8014L56.3156 57.7401L57.2396 57.2067L58.3769 56.5507L59.5663 58.6107L58.4289 59.2681ZM53.5636 50.8401L54.7009 50.1841L55.8903 52.2441L54.7529 52.9014L53.8289 53.4348L52.6383 51.3721L53.5636 50.8414V50.8401ZM59.6543 61.3894L58.7316 61.9227L57.5409 59.8627L58.4636 59.3294L59.6023 58.6721L60.7929 60.7334L59.6543 61.3894ZM75.6476 52.1561L73.5863 53.3454L72.3969 51.2854L74.4583 50.0961L75.6476 52.1561ZM77.8929 53.7707L77.8569 53.7107L76.9343 54.2427L75.7436 52.1814L76.6676 51.6494L76.6316 51.5867L75.7089 52.1214L74.5196 50.0601L75.4423 49.5281L75.4063 49.4654L74.4836 49.9987L73.2929 47.9374L74.2156 47.4054L74.1809 47.3441L73.2583 47.8774L72.0689 45.8161L72.9903 45.2827L72.9569 45.2201L72.0329 45.7534L70.8423 43.6934L71.7663 43.1601L71.7316 43.0987L70.8063 43.6321L69.6169 41.5721L70.5409 41.0374L70.5063 40.9774L69.5823 41.5107L68.3916 39.4494L69.3156 38.9161L69.2796 38.8534L68.3556 39.3867L67.6369 38.1414L67.5756 38.1774L68.2956 39.4227L66.2356 40.6134L65.5143 39.3668L65.4529 39.4027L66.1729 40.6481L64.1129 41.8387L63.3916 40.5921L63.3303 40.6281L64.0516 41.8734L61.9903 43.0641L61.2703 41.8174L61.2089 41.8521L61.9289 43.0987L59.8676 44.2894L59.1489 43.0427L59.0876 43.0774L59.8063 44.3241L57.7463 45.5147L57.0249 44.2681L56.9636 44.3027L57.6836 45.5481L55.6223 46.7401L54.9036 45.4921L54.8423 45.5294L55.5623 46.7734L53.5009 47.9641L52.7823 46.7187L52.7196 46.7534L53.4396 47.9987L52.3023 48.6561L51.3783 49.1894L50.6583 47.9441L50.5983 47.9787L51.3183 49.2254L49.2569 50.4147L48.5369 49.1694L48.4756 49.2054L49.1943 50.4507L47.1343 51.6401L46.4143 50.3934L46.3529 50.4294L47.0729 51.6761L45.0129 52.8654L44.2929 51.6187L44.2316 51.6547L44.9516 52.9014L42.8903 54.0907L42.1703 52.8441L42.1089 52.8801L42.8289 54.1267L40.7676 55.3161L40.0476 54.0694L39.9863 54.1054L40.7063 55.3521L38.6449 56.5414L37.9249 55.2961L37.8636 55.3307L38.5849 56.5761L36.5236 57.7681L35.8036 56.5214L35.7409 56.5547L36.4623 57.8014L35.4783 58.3707L35.5143 58.4321L36.4969 57.8627L37.6876 59.9241L36.7036 60.4921L36.7396 60.5534L37.7223 59.9854L38.9116 62.0467L37.9289 62.6147L37.9636 62.6761L38.9476 62.1081L40.1383 64.1694L39.1556 64.7374L39.1889 64.7987L40.1729 64.2294L41.3623 66.2907L40.3796 66.8587L40.4143 66.9201L41.3996 66.3521L42.5889 68.4134L41.6049 68.9814L41.6396 69.0441L42.6249 68.4747L43.8143 70.5347L42.8303 71.1041L42.8649 71.1654L43.8489 70.5974L45.0396 72.6574L44.0556 73.2254L44.0903 73.2867L45.0756 72.7187L45.8196 74.0081L45.8809 73.9734L45.1356 72.6827L47.1969 71.4934L47.9423 72.7827L48.0036 72.7481L47.2596 71.4574L49.3196 70.2681L50.0636 71.5574L50.1249 71.5227L49.3796 70.2321L51.4409 69.0441L52.1863 70.3321L52.2476 70.2974L51.5023 69.0067L53.5649 67.8187L54.3089 69.1081L54.3703 69.0721L53.6263 67.7814L55.6863 66.5921L56.4316 67.8827L56.4916 67.8467L55.7476 66.5574L57.8076 65.3667L58.5529 66.6574L58.6156 66.6214L57.8689 65.3321L59.9316 64.1414L60.6756 65.4321L60.7369 65.3961L59.9916 64.1054L60.9143 63.5734L62.0529 62.9161L62.7969 64.2067L62.8583 64.1707L62.1143 62.8814L64.1743 61.6907L64.9196 62.9814L64.9809 62.9454L64.2369 61.6561L66.2983 60.4654L67.0423 61.7547L67.1036 61.7201L66.3583 60.4307L68.4196 59.2414L69.1649 60.5294L69.2249 60.4947L68.4809 59.2054L70.5423 58.0161L71.2863 59.3054L71.3476 59.2694L70.6023 57.9801L72.6649 56.7907L73.4089 58.0801L73.4703 58.0454L72.7249 56.7547L74.7863 55.5654L75.5316 56.8547L75.5929 56.8201L74.8476 55.5281L76.9076 54.3401L77.6529 55.6294L77.7143 55.5947L76.9703 54.3041L77.8929 53.7707Z" fill="#214265"/>
<path d="M43.8277 76.3386L32.729 57.116L33.3943 56.7306L44.493 75.9546L43.8277 76.3386Z" fill="#E9EAE9"/>
</svg>
